<svg width="81" height="80" viewBox="0 0 81 80" fill="none" xmlns="http://www.w3.org/2000/svg">
<g clip-path="url(#clip0_100_101)">
<path d="M22.4106 -0.0209593C22.6068 -0.0220042 22.6068 -0.0220042 22.807 -0.0230701C22.9499 -0.0230413 23.0928 -0.0230125 23.24 -0.0229828C23.3925 -0.0235573 23.545 -0.0241317 23.702 -0.0247236C24.2143 -0.0264482 24.7266 -0.0270488 25.2389 -0.0276439C25.6056 -0.0286227 25.9724 -0.0296613 26.3391 -0.0307552C27.5449 -0.0340434 28.7507 -0.035662 29.9565 -0.0372187C30.3717 -0.0378512 30.7868 -0.0384945 31.202 -0.0391485C32.9291 -0.0418065 34.6562 -0.0440709 36.3833 -0.0452029C36.8313 -0.0455013 37.2793 -0.0458014 37.7273 -0.046107C37.8386 -0.0461826 37.95 -0.0462582 38.0647 -0.046336C39.867 -0.047632 41.6694 -0.0515894 43.4717 -0.0566665C45.3237 -0.0618407 47.1758 -0.0646487 49.0278 -0.0651474C50.067 -0.065485 51.1061 -0.0669126 52.1453 -0.0708444C53.1235 -0.0744854 54.1016 -0.0751421 55.0798 -0.0735379C55.4381 -0.0734606 55.7964 -0.0744463 56.1548 -0.0765936C58.6755 -0.0908499 60.7493 0.0390346 62.6805 1.84572C63.9924 3.24801 64.617 4.93692 64.6055 6.84684C64.6061 6.96375 64.6066 7.08066 64.6072 7.20111C64.6086 7.59131 64.6079 7.98148 64.6071 8.37168C64.6077 8.65489 64.6084 8.9381 64.6092 9.22131C64.6111 9.99843 64.6111 10.7755 64.6107 11.5526C64.6107 12.3912 64.6124 13.2298 64.6139 14.0684C64.6165 15.7109 64.6173 17.3535 64.6175 18.996C64.6177 20.3314 64.6183 21.6667 64.6193 23.002C64.622 26.7888 64.6235 30.5756 64.6233 34.3624C64.6232 34.5665 64.6232 34.7706 64.6232 34.9809C64.6232 35.1853 64.6232 35.3896 64.6232 35.6002C64.6231 38.9118 64.626 42.2235 64.6304 45.5351C64.6349 48.9363 64.6371 52.3375 64.6368 55.7387C64.6367 57.6479 64.6376 59.5571 64.6409 61.4662C64.6438 63.0918 64.6445 64.7174 64.6423 66.343C64.6413 67.1721 64.6413 68.0011 64.644 68.8301C64.6465 69.59 64.646 70.3497 64.6433 71.1095C64.6428 71.3835 64.6434 71.6575 64.6451 71.9315C64.6598 74.3974 64.2901 76.4059 62.5585 78.2807C61.507 79.2826 60.0674 80.0173 58.5951 80.021C58.4642 80.0217 58.3334 80.0224 58.1987 80.0231C58.0557 80.0231 57.9128 80.023 57.7656 80.023C57.6131 80.0236 57.4607 80.0242 57.3036 80.0247C56.7913 80.0265 56.279 80.0271 55.7667 80.0277C55.4 80.0286 55.0332 80.0297 54.6665 80.0308C53.4607 80.0341 52.2549 80.0357 51.0491 80.0372C50.6339 80.0379 50.2188 80.0385 49.8036 80.0392C48.0765 80.0418 46.3494 80.0441 44.6223 80.0452C44.1743 80.0455 43.7263 80.0458 43.2783 80.0461C43.1113 80.0462 43.1113 80.0462 42.9409 80.0464C41.1386 80.0477 39.3362 80.0516 37.5339 80.0567C35.6819 80.0619 33.8299 80.0647 31.9778 80.0652C30.9386 80.0655 29.8995 80.0669 28.8603 80.0709C27.8821 80.0745 26.904 80.0752 25.9258 80.0736C25.5675 80.0735 25.2092 80.0745 24.8509 80.0766C22.3301 80.0909 20.2564 79.961 18.3251 78.1543C17.0682 76.8107 16.3891 75.1647 16.4001 73.3233C16.3996 73.206 16.399 73.0887 16.3984 72.9679C16.397 72.5754 16.3978 72.183 16.3985 71.7905C16.3979 71.506 16.3972 71.2215 16.3964 70.937C16.3945 70.1557 16.3945 69.3744 16.3949 68.5931C16.3949 67.7502 16.3932 66.9074 16.3917 66.0645C16.3891 64.4134 16.3883 62.7622 16.3881 61.111C16.388 59.7687 16.3873 58.4264 16.3863 57.0842C16.3836 53.2784 16.3821 49.4726 16.3824 45.6668C16.3824 45.4616 16.3824 45.2565 16.3824 45.0451C16.3824 44.8396 16.3824 44.6342 16.3824 44.4226C16.3826 41.0936 16.3796 37.7647 16.3752 34.4358C16.3707 31.0174 16.3685 27.5991 16.3688 24.1808C16.3689 22.2617 16.368 20.3427 16.3647 18.4237C16.3618 16.7897 16.3611 15.1557 16.3633 13.5216C16.3643 12.6882 16.3643 11.8547 16.3616 11.0213C16.3591 10.2576 16.3596 9.49402 16.3623 8.73036C16.3628 8.45477 16.3622 8.17917 16.3605 7.90359C16.3461 5.46948 16.7412 3.56922 18.4471 1.71876C19.4999 0.717818 20.9379 -0.017309 22.4106 -0.0209593ZM19.9175 4.35365C19.3785 5.27211 19.1942 6.0941 19.1938 7.15176C19.1931 7.26785 19.1925 7.38394 19.1918 7.50355C19.19 7.89096 19.1917 8.27829 19.1933 8.66571C19.1927 8.9469 19.192 9.22809 19.1911 9.50928C19.1891 10.2808 19.1901 11.0523 19.1915 11.8238C19.1926 12.6563 19.191 13.4887 19.1897 14.3212C19.1876 15.9516 19.188 17.582 19.1894 19.2124C19.1904 20.5374 19.1906 21.8623 19.1901 23.1873C19.19 23.3759 19.1899 23.5644 19.1899 23.7587C19.1897 24.1417 19.1896 24.5247 19.1894 24.9077C19.1881 28.4996 19.1896 32.0916 19.1921 35.6835C19.1942 38.7659 19.1939 41.8483 19.1917 44.9307C19.1892 48.5098 19.1882 52.0888 19.1896 55.6679C19.1898 56.0495 19.1899 56.4311 19.1901 56.8127C19.1902 57.0005 19.1902 57.1882 19.1903 57.3817C19.1907 58.7051 19.19 60.0286 19.1889 61.3521C19.1876 62.9648 19.188 64.5776 19.1905 66.1903C19.1917 67.0133 19.1922 67.8362 19.1906 68.6591C19.1892 69.4124 19.19 70.1657 19.1925 70.919C19.193 71.1915 19.1927 71.4641 19.1916 71.7366C19.1902 72.1072 19.1916 72.4777 19.1938 72.8483C19.1939 73.0541 19.194 73.2598 19.194 73.4719C19.2873 74.4093 19.583 75.2558 20.2098 75.9766C20.3313 76.1228 20.3313 76.1228 20.4552 76.272C21.4597 77.0824 22.5082 77.2798 23.7682 77.2679C23.9176 77.269 24.067 77.2701 24.2209 77.2712C24.7182 77.2741 25.2154 77.2725 25.7127 77.2709C26.0706 77.272 26.4285 77.2733 26.7864 77.2749C27.7562 77.2785 28.7259 77.278 29.6957 77.2766C30.5061 77.2758 31.3165 77.277 32.1268 77.2781C34.1481 77.2809 36.1694 77.2799 38.1907 77.2771C39.9436 77.2748 41.6965 77.2771 43.4494 77.2816C45.2522 77.2862 47.0549 77.2878 48.8577 77.2864C49.8687 77.2857 50.8796 77.286 51.8906 77.2892C52.8413 77.2921 53.792 77.2912 54.7427 77.2873C55.0911 77.2865 55.4394 77.2871 55.7877 77.2891C56.2644 77.2916 56.7409 77.2892 57.2176 77.2857C57.3543 77.2875 57.4911 77.2894 57.632 77.2913C58.7764 77.2741 59.7863 76.909 60.6471 76.1366C61.5362 75.2048 61.8113 74.1096 61.8118 72.8483C61.8125 72.7322 61.8132 72.6161 61.8139 72.4965C61.8156 72.1091 61.8139 71.7217 61.8123 71.3343C61.8129 71.0531 61.8136 70.7719 61.8145 70.4908C61.8165 69.7192 61.8155 68.9478 61.8141 68.1763C61.813 67.3438 61.8147 66.5113 61.8159 65.6788C61.818 64.0484 61.8176 62.418 61.8162 60.7877C61.8152 59.4627 61.815 58.1377 61.8155 56.8127C61.8156 56.6241 61.8157 56.4356 61.8158 56.2414C61.8159 55.8583 61.8161 55.4753 61.8162 55.0923C61.8175 51.5004 61.816 47.9084 61.8135 44.3165C61.8114 41.2341 61.8118 38.1517 61.8139 35.0693C61.8164 31.4902 61.8174 27.9112 61.816 24.3322C61.8158 23.9506 61.8157 23.5689 61.8155 23.1873C61.8154 22.9057 61.8154 22.9057 61.8153 22.6184C61.8149 21.2949 61.8156 19.9714 61.8167 18.6479C61.818 17.0352 61.8177 15.4224 61.8152 13.8097C61.8139 12.9867 61.8134 12.1638 61.815 11.3409C61.8164 10.5876 61.8156 9.83432 61.8131 9.08102C61.8126 8.80849 61.8129 8.53596 61.814 8.26344C61.8154 7.89284 61.814 7.52236 61.8118 7.15176C61.8117 6.94597 61.8116 6.74017 61.8116 6.52814C61.7183 5.59076 61.4227 4.74421 60.7958 4.02345C60.7148 3.92596 60.6338 3.82848 60.5504 3.72804C59.4648 2.8522 58.3621 2.72358 57.0061 2.75148C56.8416 2.75236 56.6771 2.75325 56.5077 2.75416C55.9871 2.75763 55.4667 2.76547 54.9462 2.77345C54.5912 2.77659 54.2363 2.77944 53.8814 2.782C53.0156 2.78885 52.1498 2.79928 51.2841 2.81251C51.2652 2.98369 51.2464 3.15487 51.227 3.33124C51.2007 3.55832 51.1744 3.78539 51.1479 4.01246C51.1357 4.12499 51.1235 4.23752 51.111 4.35346C50.9824 5.43829 50.7124 6.26723 49.865 7.00013C48.7149 7.82109 47.6504 8.01585 46.2689 8.01168C46.1308 8.01248 45.9927 8.01328 45.8504 8.0141C45.3964 8.01626 44.9424 8.01612 44.4884 8.01576C44.171 8.01637 43.8537 8.01705 43.5363 8.01779C42.872 8.01895 42.2077 8.01891 41.5434 8.01809C40.6945 8.01718 39.8458 8.01983 38.9969 8.02345C38.3417 8.02576 37.6865 8.02589 37.0313 8.0254C36.7184 8.02549 36.4056 8.0263 36.0927 8.02788C35.6542 8.02982 35.2157 8.02874 34.7772 8.02694C34.5857 8.02873 34.5857 8.02873 34.3904 8.03056C32.9316 8.01738 31.6882 7.57122 30.6298 6.54298C30.0602 5.63947 29.8852 4.69416 29.7937 3.64175C29.7801 3.48658 29.7664 3.33141 29.7524 3.17154C29.7371 2.99382 29.7371 2.99382 29.7216 2.81251C28.6821 2.79258 27.6427 2.77897 26.603 2.7696C26.2499 2.76569 25.8968 2.76037 25.5438 2.75358C25.0341 2.74402 24.5245 2.73965 24.0148 2.73622C23.8588 2.73219 23.7028 2.72815 23.5421 2.724C22.0633 2.72342 20.8801 3.21282 19.9175 4.35365ZM32.5341 2.81251C32.4517 4.08542 32.4517 4.08542 33.0028 5.00001C33.5957 5.41688 34.2532 5.35758 34.9486 5.35543C35.0815 5.35623 35.2145 5.35703 35.3514 5.35785C35.7907 5.36002 36.2299 5.35987 36.6692 5.35951C36.9747 5.36012 37.2802 5.36079 37.5857 5.36154C38.226 5.3627 38.8664 5.36266 39.5067 5.36184C40.327 5.36093 41.1473 5.36358 41.9677 5.3672C42.5986 5.36951 43.2296 5.36964 43.8605 5.36915C44.163 5.36924 44.4654 5.37005 44.7679 5.37163C45.1909 5.37355 45.6138 5.3725 46.0368 5.37069C46.1616 5.37188 46.2864 5.37308 46.415 5.37431C47.1263 5.36758 47.6038 5.30277 48.1591 4.84376C48.5764 4.12559 48.5764 4.12559 48.4716 2.81251C43.2122 2.81251 37.9528 2.81251 32.5341 2.81251Z" fill="#E57D90"/>
<path d="M57.0653 33.2813C57.5232 33.593 57.7911 33.8169 57.9161 34.3707C57.945 34.8861 57.9121 35.2278 57.5934 35.6398C57.1396 36.0031 56.7387 36.1428 56.1839 36.3162C56.0813 36.3487 55.9788 36.3812 55.8731 36.4147C55.542 36.5185 55.2101 36.6191 54.8778 36.7188C54.7703 36.7513 54.6628 36.7838 54.552 36.8172C53.7381 37.0622 52.9217 37.2986 52.105 37.5342C51.8378 37.6117 51.5705 37.6892 51.3033 37.7667C50.7358 37.9313 50.1681 38.0957 49.6004 38.2598C48.7038 38.519 47.8074 38.7788 46.911 39.0387C46.6059 39.1272 46.3009 39.2157 45.9958 39.3041C45.7684 39.3701 45.7684 39.3701 45.5363 39.4373C45.0742 39.5713 44.6121 39.7052 44.15 39.8391C42.1809 40.4097 40.2124 40.9823 38.2445 41.557C38.1189 41.5937 37.9932 41.6304 37.8638 41.6682C36.7905 41.9816 35.7173 42.2951 34.6442 42.609C34.426 42.6727 34.2079 42.7365 33.9898 42.8003C33.8831 42.8315 33.7763 42.8627 33.6664 42.8949C32.8331 43.1384 31.9993 43.3804 31.1654 43.6221C30.4669 43.8249 29.7693 44.0309 29.0721 44.2383C28.5686 44.3876 28.0646 44.5354 27.5605 44.6829C27.3187 44.754 27.0771 44.8258 26.8357 44.8984C26.5007 44.999 26.165 45.0971 25.8292 45.1948C25.6376 45.2515 25.446 45.3083 25.2486 45.3668C24.5402 45.5038 24.0265 45.4656 23.413 45.0781C23.0876 44.5776 23.0841 44.2139 23.076 43.6279C23.1924 43.1422 23.4025 42.9767 23.7841 42.6563C24.2626 42.4629 24.2626 42.4629 24.8353 42.2981C24.9408 42.2671 25.0463 42.2362 25.155 42.2042C25.5074 42.1013 25.8606 42.0013 26.2139 41.9013C26.4665 41.8281 26.719 41.7548 26.9715 41.6812C27.6565 41.4823 28.3422 41.2859 29.0281 41.0899C29.7498 40.8832 30.4709 40.6741 31.192 40.4652C32.3928 40.1176 33.594 39.7712 34.7954 39.4255C36.5134 38.931 38.23 38.4318 39.9462 37.9309C40.0802 37.8918 40.2141 37.8527 40.3522 37.8124C40.8858 37.6567 41.4194 37.501 41.9529 37.3452C42.8622 37.0799 43.7716 36.8152 44.6812 36.551C44.8694 36.4963 44.8694 36.4963 45.0615 36.4405C45.5557 36.297 46.0499 36.1534 46.5441 36.0099C47.9306 35.6072 49.3165 35.2026 50.7014 34.7942C51.3708 34.5968 52.0405 34.4004 52.7102 34.2042C53.0042 34.1178 53.2981 34.0308 53.5917 33.9433C53.981 33.8273 54.3707 33.7131 54.7606 33.5993C54.8695 33.5662 54.9784 33.5332 55.0906 33.4992C55.7648 33.3049 56.3648 33.226 57.0653 33.2813Z" fill="#E57D90"/>
<path d="M30.0634 49.2187C30.8549 49.4263 30.8549 49.4263 31.1278 49.8437C31.3021 50.3665 31.3046 50.7608 31.3062 51.3118C31.3071 51.4628 31.3071 51.4628 31.3079 51.6168C31.309 51.8353 31.3099 52.0537 31.3104 52.2721C31.3116 52.6183 31.314 52.9645 31.3169 53.3107C31.3251 54.2949 31.3326 55.2792 31.335 56.2635C31.3366 56.8658 31.3412 57.4681 31.3477 58.0705C31.3496 58.2995 31.3504 58.5286 31.3501 58.7576C31.3497 59.0789 31.3532 59.3999 31.3575 59.7212C31.3589 59.9949 31.3589 59.9949 31.3603 60.2742C31.4884 61.0856 31.8806 61.5668 32.5048 62.08C33.1566 62.4251 33.6851 62.5872 34.4219 62.431C35.1481 62.1952 35.5602 61.9145 35.9716 61.2499C36.2703 60.6294 36.3232 60.1319 36.324 59.4457C36.3256 59.1399 36.3256 59.1399 36.3273 58.8279C36.3272 58.7197 36.3271 58.6116 36.327 58.5001C36.3268 58.1598 36.3288 57.8196 36.3315 57.4793C36.3387 56.5123 36.3426 55.5453 36.3436 54.5782C36.3444 53.9856 36.3482 53.3931 36.3538 52.8005C36.3553 52.5753 36.3557 52.35 36.3549 52.1247C36.3538 51.8095 36.3568 51.4943 36.36 51.1791C36.3604 51 36.3609 50.8209 36.3613 50.6364C36.458 50.049 36.6446 49.79 37.0653 49.3749C37.6824 49.1954 38.0075 49.1513 38.5985 49.414C38.9403 49.6874 38.9403 49.6874 39.2528 50.1562C39.2946 50.6103 39.2946 50.6103 39.2982 51.1718C39.2993 51.2743 39.3003 51.3767 39.3014 51.4823C39.3044 51.8215 39.305 52.1607 39.3053 52.4999C39.3063 52.7369 39.3074 52.9738 39.3085 53.2107C39.3103 53.7083 39.3109 54.2058 39.3107 54.7034C39.3107 55.3368 39.315 55.9701 39.3204 56.6035C39.3239 57.0936 39.3245 57.5837 39.3243 58.0738C39.3247 58.307 39.326 58.5402 39.3285 58.7734C39.347 60.7314 39.0861 62.4396 37.6903 63.9062C36.4515 65.037 35.1411 65.4664 33.4716 65.4687C31.9572 65.344 30.6958 64.7011 29.6544 63.5992C28.8557 62.564 28.4553 61.4721 28.439 60.1764C28.4367 60.0136 28.4367 60.0136 28.4343 59.8475C28.4297 59.4886 28.4263 59.1296 28.4234 58.7707C28.4223 58.648 28.4213 58.5253 28.4202 58.3988C28.4152 57.7496 28.4113 57.1003 28.4083 56.451C28.4055 55.9138 28.4001 55.3768 28.3923 54.8396C28.3829 54.1907 28.3781 53.5419 28.3765 52.8929C28.3752 52.6458 28.3723 52.3987 28.3677 52.1517C28.3616 51.8056 28.3614 51.46 28.3627 51.1139C28.3611 50.9172 28.3594 50.7205 28.3578 50.5178C28.5338 49.7166 29.1733 49.0481 30.0634 49.2187Z" fill="#E57D90"/>
<path d="M29.7997 13.1934C30.4255 13.2939 30.684 13.4624 31.1278 13.9062C31.3468 14.3443 31.3047 14.7078 31.3062 15.1979C31.3073 15.4039 31.3084 15.6099 31.3095 15.8222C31.3098 15.9327 31.3101 16.0433 31.3104 16.1571C31.3115 16.5034 31.314 16.8496 31.3169 17.1958C31.325 18.1803 31.3325 19.1648 31.335 20.1494C31.3365 20.7516 31.3411 21.3537 31.3477 21.9559C31.3496 22.1848 31.3504 22.4137 31.35 22.6426C31.3241 24.3227 31.3241 24.3227 32.0653 25.7812C32.7333 26.3318 33.3549 26.512 34.2204 26.4648C34.809 26.3648 35.2089 26.1701 35.659 25.7812C36.3733 24.7281 36.3681 23.7198 36.3552 22.4842C36.3517 22.1405 36.3523 21.7971 36.354 21.4534C36.3574 20.601 36.3547 19.7486 36.3506 18.8962C36.3473 18.1734 36.347 17.4508 36.3511 16.728C36.3518 16.3903 36.3479 16.0528 36.344 15.7151C36.345 15.5096 36.3461 15.3041 36.3472 15.0924C36.3463 14.9119 36.3455 14.7314 36.3446 14.5455C36.4694 13.9157 36.7324 13.6824 37.2215 13.2812C37.6944 13.1395 37.9637 13.2087 38.4715 13.2812C38.8514 13.5735 39.0404 13.794 39.2528 14.2187C39.2695 14.5471 39.2761 14.876 39.278 15.2048C39.2791 15.3565 39.2791 15.3565 39.2803 15.5113C39.2826 15.8471 39.2837 16.1828 39.2845 16.5186C39.2854 16.7526 39.2863 16.9866 39.2872 17.2206C39.2889 17.7124 39.2898 18.2042 39.2903 18.696C39.2912 19.3226 39.2949 19.9491 39.2994 20.5756C39.3023 21.0598 39.3031 21.544 39.3033 22.0282C39.3038 22.259 39.3051 22.4897 39.3071 22.7204C39.325 24.8757 39.0456 26.5013 37.534 28.125C36.0338 29.2832 34.5564 29.53 32.6903 29.375C31.0573 28.9903 29.9503 28.0107 29.0099 26.6656C28.5476 25.8149 28.4319 24.9839 28.4237 24.0261C28.4224 23.919 28.4211 23.8119 28.4197 23.7015C28.416 23.3511 28.4146 23.0006 28.4136 22.6501C28.4122 22.4049 28.4107 22.1596 28.4093 21.9143C28.4067 21.4018 28.4055 20.8894 28.405 20.3769C28.4042 19.721 28.3983 19.0652 28.3912 18.4093C28.3865 17.9034 28.3854 17.3976 28.3852 16.8917C28.3846 16.6498 28.3827 16.408 28.3794 16.1662C28.3752 15.8281 28.3759 15.4903 28.3779 15.1522C28.3771 14.9602 28.3763 14.7681 28.3755 14.5703C28.534 13.7323 28.9663 13.3273 29.7997 13.1934Z" fill="#E57D90"/>
<path d="M43.9314 13.3782C44.3886 13.6847 44.614 14.1039 44.8839 14.5703C44.9413 14.6662 44.9986 14.7621 45.0577 14.8609C45.2401 15.1668 45.4204 15.4739 45.6005 15.7812C45.7821 16.0882 45.9641 16.395 46.1467 16.7015C46.26 16.892 46.3727 17.083 46.4847 17.2743C46.7075 17.6514 46.9104 17.97 47.2216 18.2812C47.298 18.1519 47.3743 18.0227 47.453 17.8895C47.7383 17.4075 48.0256 16.9268 48.3135 16.4463C48.4376 16.2387 48.5611 16.0308 48.684 15.8226C48.8614 15.5223 49.0408 15.2232 49.2205 14.9243C49.2746 14.8318 49.3286 14.7393 49.3843 14.644C49.7363 14.0641 50.0927 13.6566 50.6591 13.2812C51.3461 13.1708 51.6337 13.2001 52.2118 13.5937C52.6125 14.1765 52.6353 14.6317 52.5341 15.3125C52.3732 15.7375 52.1492 16.1066 51.9066 16.4898C51.8422 16.5964 51.7778 16.7031 51.7115 16.8129C51.5064 17.151 51.2977 17.4866 51.0888 17.8222C50.9508 18.048 50.813 18.2739 50.6756 18.5C50.4216 18.9174 50.1659 19.3336 49.9088 19.7491C49.5731 20.2945 49.2553 20.8487 48.9403 21.4062C49.0159 21.5305 49.0914 21.6549 49.1693 21.783C49.4541 22.2518 49.7389 22.7207 50.0237 23.1896C50.1461 23.3911 50.2685 23.5926 50.391 23.7941C50.4501 23.8913 50.5091 23.9885 50.57 24.0887C50.658 24.2336 50.658 24.2336 50.7478 24.3814C50.865 24.5745 50.9821 24.7677 51.099 24.9611C51.3597 25.3921 51.6219 25.8217 51.8887 26.249C51.9734 26.3857 52.058 26.5223 52.1453 26.6632C52.2185 26.7797 52.2918 26.8963 52.3673 27.0164C52.6615 27.5936 52.6529 27.9564 52.5341 28.5937C52.2118 29.0625 52.2118 29.0625 51.7528 29.375C51.1266 29.4756 50.8079 29.4736 50.2754 29.1206C49.8275 28.703 49.5265 28.2553 49.2205 27.7319C49.1626 27.6357 49.1048 27.5394 49.0452 27.4403C48.8623 27.1355 48.6816 26.8295 48.5009 26.5234C48.3766 26.3154 48.2522 26.1075 48.1277 25.8996C47.8241 25.3923 47.5223 24.8839 47.2216 24.375C46.7699 24.9168 46.3946 25.467 46.0393 26.076C45.9377 26.2483 45.8361 26.4206 45.7314 26.5982C45.5723 26.8695 45.4135 27.141 45.2552 27.4129C45.1008 27.6774 44.9451 27.9412 44.7893 28.2049C44.6976 28.3619 44.6058 28.519 44.5113 28.6808C44.2528 29.0625 44.2528 29.0625 43.7841 29.375C42.6718 29.4809 42.6718 29.4809 42.1532 29.082C41.7436 28.5249 41.6934 28.1932 41.7528 27.5C41.9818 27.0024 41.9818 27.0024 42.3009 26.4721C42.386 26.3288 42.386 26.3288 42.4729 26.1826C42.6541 25.8783 42.8382 25.5759 43.0224 25.2734C43.1426 25.0727 43.2626 24.8719 43.3825 24.671C43.4412 24.5729 43.5 24.4748 43.5605 24.3737C43.6774 24.1784 43.7937 23.9827 43.9096 23.7867C44.1688 23.3516 44.4308 22.9393 44.7324 22.5314C45.0029 22.1555 45.208 21.8481 45.3466 21.4062C45.2308 20.7974 44.9075 20.3525 44.5653 19.8437C44.4046 19.5739 44.2439 19.3042 44.0845 19.0336C43.7948 18.5449 43.4959 18.0619 43.1981 17.5781C43.0154 17.2798 42.8328 16.9814 42.6503 16.683C42.4866 16.4155 42.3224 16.1482 42.1583 15.881C41.789 15.27 41.6819 14.9418 41.7528 14.2187C42.3288 13.3548 42.8918 13.0459 43.9314 13.3782Z" fill="#E57D90"/>
<path d="M43.6881 49.1886C43.8602 49.1861 44.0324 49.1836 44.2097 49.181C44.9961 49.174 45.7824 49.1676 46.5688 49.164C46.9836 49.1614 47.3984 49.1572 47.8132 49.1512C48.4113 49.1427 49.0093 49.1392 49.6074 49.137C49.8851 49.1316 49.8851 49.1316 50.1683 49.1262C51.6037 49.1299 51.6037 49.1299 52.1822 49.5943C52.6599 50.145 52.6599 50.145 52.6415 50.625C52.6421 50.7249 52.6427 50.8248 52.6433 50.9277C52.5341 51.25 52.5341 51.25 51.7528 52.0312C50.7216 52.0312 49.6903 52.0312 48.6278 52.0312C48.6278 55.5375 48.6278 59.0437 48.6278 62.6562C49.6591 62.6562 50.6903 62.6562 51.7528 62.6562C52.5341 63.4375 52.5341 63.4375 52.6323 63.7653C52.6141 64.3049 52.576 64.6311 52.2509 65.0684C51.708 65.4561 51.2733 65.4888 50.625 65.4914C50.4586 65.4924 50.2922 65.4934 50.1208 65.4945C49.9411 65.4946 49.7614 65.4948 49.5763 65.495C49.3915 65.4955 49.2068 65.496 49.0164 65.4966C48.6253 65.4974 48.2341 65.4977 47.843 65.4977C47.2446 65.498 46.6462 65.5009 46.0479 65.5038C45.668 65.5043 45.2882 65.5046 44.9083 65.5048C44.6397 65.5064 44.6397 65.5064 44.3657 65.5082C44.1147 65.5074 44.1147 65.5074 43.8586 65.5067C43.6385 65.507 43.6385 65.507 43.4139 65.5074C42.8268 65.4522 42.382 65.2899 41.9286 64.9121C41.6589 64.3277 41.7045 63.7319 41.9091 63.125C42.5341 62.6562 42.5341 62.6562 45.8153 62.6562C45.8153 59.15 45.8153 55.6437 45.8153 52.0312C44.7325 52.0312 43.6497 52.0312 42.5341 52.0312C41.7723 51.2695 41.7723 51.2695 41.704 50.6543C41.7643 50.0392 41.9456 49.8072 42.3778 49.375C42.8544 49.2161 43.1888 49.1952 43.6881 49.1886Z" fill="#E57D90"/>
<path d="M31.6207 71.8343C31.7835 71.8332 31.9462 71.8321 32.1139 71.8309C32.2916 71.8313 32.4693 71.8317 32.6524 71.8321C32.8402 71.8313 33.028 71.8305 33.2215 71.8297C33.7361 71.8279 34.2507 71.8275 34.7653 71.8279C35.1951 71.8281 35.625 71.8273 36.0548 71.8266C37.069 71.8248 38.0832 71.8248 39.0974 71.8257C40.1431 71.8266 41.1888 71.8247 42.2345 71.8214C43.1329 71.8186 44.0313 71.8177 44.9297 71.8182C45.466 71.8185 46.0023 71.8181 46.5386 71.8159C47.1367 71.8136 47.7348 71.815 48.3329 71.8169C48.5103 71.8157 48.6877 71.8145 48.8704 71.8132C49.1152 71.8149 49.1152 71.8149 49.365 71.8166C49.5063 71.8165 49.6477 71.8165 49.7933 71.8165C50.3821 71.9033 50.818 72.1485 51.1864 72.6172C51.3335 73.1471 51.2602 73.5328 51.1278 74.0625C50.8094 74.4667 50.6251 74.6627 50.1153 74.7662C49.9692 74.7664 49.8231 74.7666 49.6725 74.7669C49.5043 74.7687 49.3361 74.7704 49.1627 74.7722C48.887 74.7703 48.887 74.7703 48.6058 74.7684C48.3145 74.77 48.3145 74.77 48.0174 74.7717C47.4854 74.774 46.9534 74.7735 46.4214 74.7715C45.8645 74.7699 45.3076 74.7714 44.7507 74.7723C43.8154 74.7735 42.8802 74.772 41.945 74.769C40.8639 74.7656 39.7829 74.7667 38.7019 74.7701C37.7735 74.773 36.8452 74.7734 35.9168 74.7717C35.3624 74.7708 34.808 74.7706 34.2537 74.7727C33.6357 74.7749 33.0177 74.7719 32.3997 74.7684C32.2159 74.7697 32.0322 74.7709 31.8428 74.7722C31.5904 74.7696 31.5904 74.7696 31.333 74.7669C31.1869 74.7667 31.0408 74.7664 30.8903 74.7662C30.3807 74.6627 30.1967 74.4658 29.8778 74.0625C29.7115 73.4527 29.6594 73.1158 29.9071 72.5293C30.4019 71.9321 30.8631 71.836 31.6207 71.8343Z" fill="#E57D90"/>
</g>
<defs>
<clipPath id="clip0_100_101">
<rect width="80" height="80" fill="white" transform="translate(0.502808)"/>
</clipPath>
</defs>
</svg>
