<svg width="81" height="80" viewBox="0 0 81 80" fill="none" xmlns="http://www.w3.org/2000/svg">
<path d="M10.5212 6.17064C10.7909 6.16992 11.0605 6.16892 11.3302 6.16768C12.0677 6.16508 12.8051 6.16636 13.5426 6.1683C14.3393 6.16972 15.136 6.16753 15.9327 6.16581C17.492 6.16304 19.0514 6.16363 20.6107 6.16544C21.8783 6.16686 23.1458 6.16705 24.4133 6.16637C24.5939 6.16627 24.7744 6.16618 24.9604 6.16608C25.3272 6.16588 25.694 6.16567 26.0608 6.16547C29.4985 6.16369 32.9362 6.16573 36.3739 6.16909C39.3224 6.17189 42.2708 6.1714 45.2193 6.16852C48.6449 6.16517 52.0705 6.16386 55.496 6.16578C55.8615 6.16598 56.2269 6.16617 56.5923 6.16637C56.8619 6.16651 56.862 6.16651 57.1371 6.16666C58.4028 6.1672 59.6685 6.16629 60.9343 6.16482C62.4772 6.16306 64.0201 6.16354 65.563 6.16687C66.3499 6.16851 67.1368 6.16916 67.9237 6.16709C68.6447 6.16522 69.3655 6.16626 70.0865 6.16957C70.3467 6.17027 70.6069 6.16992 70.8671 6.1684C72.9917 6.15694 74.6933 6.45018 76.2841 7.96875C77.6845 9.4357 78.0985 11.0197 78.0822 13.0091C78.0836 13.287 78.0836 13.2871 78.0851 13.5706C78.0872 14.0801 78.0865 14.5894 78.0845 15.0989C78.0831 15.6502 78.0853 16.2015 78.087 16.7528C78.0898 17.8309 78.0892 18.909 78.0874 19.987C78.086 20.8637 78.0858 21.7403 78.0864 22.6169C78.0865 22.7419 78.0866 22.867 78.0867 22.9958C78.0869 23.2498 78.0871 23.5039 78.0873 23.7579C78.0891 26.1369 78.0871 28.5159 78.0837 30.8949C78.0809 32.9338 78.0814 34.9726 78.0843 37.0114C78.0876 39.3822 78.089 41.7531 78.087 44.1239C78.0868 44.377 78.0866 44.63 78.0864 44.8831C78.0863 45.0699 78.0863 45.0699 78.0862 45.2604C78.0856 46.1354 78.0865 47.0104 78.088 47.8854C78.0898 48.9525 78.0893 50.0196 78.0859 51.0868C78.0843 51.6307 78.0836 52.1745 78.0857 52.7184C78.0874 53.3093 78.0853 53.9 78.0822 54.4909C78.0843 54.7461 78.0843 54.7461 78.0864 55.0064C78.0682 56.7918 77.5219 58.2346 76.2841 59.5313C74.734 61.011 73.0903 61.3438 70.9989 61.3353C70.7878 61.3367 70.5766 61.3383 70.3655 61.3402C69.7977 61.3445 69.23 61.3451 68.6622 61.3449C68.0669 61.3454 67.4715 61.3494 66.8762 61.3531C65.7512 61.3594 64.6263 61.3626 63.5013 61.3646C62.2195 61.3671 60.9378 61.3731 59.656 61.3794C57.0216 61.3922 54.3872 61.4007 51.7528 61.4063C52.0467 61.9966 52.341 62.5868 52.6354 63.1769C52.7174 63.3418 52.7995 63.5066 52.8841 63.6765C53.4759 64.8622 54.0847 66.0378 54.7101 67.2061C55.4568 68.6023 55.8104 69.8751 55.4064 71.4758C54.9943 72.4058 54.1919 73.165 53.2806 73.6053C52.7727 73.7746 52.3592 73.7902 51.8238 73.7918C51.7232 73.7925 51.6226 73.7932 51.5189 73.7939C51.1831 73.7959 50.8473 73.7957 50.5115 73.7954C50.2702 73.7963 50.0288 73.7974 49.7875 73.7986C49.1328 73.8013 48.4781 73.8021 47.8234 73.8023C47.414 73.8025 47.0047 73.8032 46.5954 73.804C45.1665 73.8069 43.7376 73.8082 42.3086 73.8079C40.9781 73.8077 39.6476 73.811 38.3171 73.816C37.1736 73.8201 36.0301 73.8217 34.8866 73.8215C34.2042 73.8214 33.5218 73.8223 32.8394 73.8256C32.1972 73.8287 31.5551 73.8287 30.9129 73.8264C30.6779 73.8261 30.4428 73.8268 30.2078 73.8287C28.7736 73.8395 27.719 73.7815 26.5642 72.8455C25.795 71.9659 25.3076 71.0897 25.3677 69.8913C25.5601 68.6212 25.9981 67.6046 26.5966 66.4746C26.7201 66.234 26.7201 66.234 26.8462 65.9885C27.0678 65.5587 27.2921 65.1305 27.5175 64.7028C27.7083 64.3409 27.8988 63.9789 28.0893 63.6169C28.1579 63.4866 28.2265 63.3562 28.2972 63.2219C28.4016 63.0235 28.4016 63.0235 28.5082 62.8211C28.5801 62.6845 28.6519 62.5479 28.726 62.4072C28.9016 62.0736 29.0772 61.7399 29.2528 61.4063C29.1441 61.406 29.0353 61.4058 28.9233 61.4056C26.2718 61.3998 23.6203 61.3905 20.9688 61.3775C19.6865 61.3713 18.4042 61.3662 17.122 61.3639C16.0037 61.3619 14.8855 61.3577 13.7673 61.3508C13.1757 61.3473 12.5842 61.3449 11.9926 61.345C11.4346 61.3451 10.8766 61.3423 10.3186 61.3373C10.0187 61.3354 9.71879 61.3365 9.41888 61.3377C7.55354 61.3155 6.08337 60.8313 4.72156 59.5313C3.32116 58.0643 2.90714 56.4803 2.92344 54.4909C2.92247 54.3056 2.92149 54.1203 2.92049 53.9294C2.91844 53.4199 2.91916 52.9106 2.92111 52.4011C2.92253 51.8498 2.92033 51.2985 2.91862 50.7472C2.91585 49.6691 2.91644 48.591 2.91825 47.513C2.91967 46.6363 2.91985 45.7597 2.91917 44.8831C2.91908 44.7581 2.91898 44.6331 2.91888 44.5042C2.91868 44.2502 2.91848 43.9962 2.91828 43.7421C2.9165 41.3631 2.91854 38.9841 2.9219 36.6051C2.92469 34.5662 2.92421 32.5274 2.92133 30.4886C2.91798 28.1178 2.91667 25.747 2.91859 23.3761C2.91878 23.123 2.91898 22.87 2.91917 22.6169C2.91927 22.4924 2.91937 22.3679 2.91947 22.2396C2.92 21.3646 2.9191 20.4896 2.91762 19.6146C2.91587 18.5475 2.91636 17.4804 2.91968 16.4132C2.92131 15.8693 2.92197 15.3255 2.91989 14.7816C2.91818 14.1907 2.92034 13.6 2.92344 13.0091C2.92205 12.839 2.92066 12.6689 2.91922 12.4936C2.93738 10.7082 3.48374 9.2654 4.72156 7.96875C6.4302 6.33763 8.26624 6.15746 10.5212 6.17064ZM6.40125 10.2246C5.46284 11.3762 5.47964 12.6599 5.48402 14.0838C5.48389 14.2425 5.48375 14.4012 5.48361 14.5646C5.48336 15.0976 5.48422 15.6306 5.48507 16.1636C5.48512 16.5517 5.4851 16.9397 5.48501 17.3278C5.48498 18.2621 5.48565 19.1964 5.48665 20.1307C5.48778 21.2117 5.4879 22.2926 5.48803 23.3736C5.48885 26.2269 5.49103 29.0803 5.49304 31.9336C5.49627 38.308 5.49949 44.6824 5.50281 51.25C18.2903 51.25 31.0778 51.25 44.2528 51.25C44.2528 37.225 44.2528 23.2 44.2528 8.75C38.5068 8.74356 32.7608 8.73711 26.8407 8.73047C24.119 8.7262 24.119 8.7262 21.3424 8.72185C19.7162 8.7208 19.7162 8.7208 18.09 8.72018C17.3656 8.71989 16.6412 8.71871 15.9168 8.71701C14.9924 8.71486 14.068 8.71422 13.1436 8.71467C12.8045 8.71457 12.4655 8.71396 12.1265 8.71275C11.6679 8.71119 11.2093 8.71157 10.7507 8.71242C10.6186 8.71151 10.4866 8.7106 10.3505 8.70966C8.74753 8.71766 7.51007 8.99556 6.40125 10.2246ZM46.7528 8.75C46.7528 22.775 46.7528 36.8 46.7528 51.25C56.2403 51.25 65.7278 51.25 75.5028 51.25C75.5119 44.3971 75.5119 44.3971 75.5181 37.5443C75.5187 36.62 75.5193 35.6957 75.52 34.7715C75.5201 34.5977 75.5201 34.5977 75.5202 34.4204C75.5216 32.5515 75.524 30.6825 75.5269 28.8135C75.5298 26.8948 75.5316 24.9761 75.5322 23.0573C75.5326 21.8738 75.534 20.6903 75.5365 19.5068C75.5384 18.5986 75.5386 17.6904 75.5382 16.7821C75.5382 16.4101 75.5389 16.038 75.5401 15.6659C75.5416 15.1573 75.5412 14.6488 75.5404 14.1402C75.5413 13.9935 75.5422 13.8469 75.5431 13.6957C75.5366 12.2412 75.3851 10.9702 74.309 9.90174C73.2138 8.91369 72.1486 8.73007 70.691 8.73121C70.5883 8.73108 70.4857 8.73095 70.3799 8.73081C70.0371 8.73055 69.6943 8.73141 69.3515 8.73226C69.101 8.73231 68.8506 8.73229 68.6002 8.73221C67.9308 8.73217 67.2614 8.73308 66.5919 8.73418C65.9633 8.73507 65.3347 8.73511 64.7061 8.73522C62.8688 8.73604 61.0315 8.73822 59.1942 8.74024C53.0357 8.74507 53.0357 8.74507 46.7528 8.75ZM5.50281 53.75C5.50281 55.1542 5.52492 56.2304 6.44031 57.3438C7.60984 58.5049 8.70322 58.7691 10.3403 58.7701C10.4465 58.7704 10.5527 58.7707 10.6621 58.7709C11.0177 58.7717 11.3732 58.7713 11.7288 58.7709C11.9864 58.7712 12.244 58.7715 12.5016 58.772C13.2094 58.7729 13.9172 58.7729 14.6249 58.7727C15.3883 58.7727 16.1517 58.7736 16.9151 58.7743C18.4106 58.7756 19.9061 58.776 21.4017 58.7761C22.6172 58.7762 23.8328 58.7765 25.0484 58.777C28.4943 58.7784 31.9402 58.7791 35.3862 58.779C35.6649 58.779 35.6649 58.779 35.9492 58.779C36.1352 58.779 36.3212 58.7789 36.5128 58.7789C39.5279 58.7789 42.5429 58.7804 45.5579 58.7826C48.6533 58.7848 51.7487 58.7859 54.8441 58.7858C56.5821 58.7857 58.32 58.7861 60.058 58.7878C61.5377 58.7892 63.0174 58.7896 64.4971 58.7885C65.252 58.788 66.0069 58.788 66.7618 58.7894C67.4532 58.7906 68.1445 58.7904 68.8359 58.789C69.0857 58.7888 69.3355 58.789 69.5853 58.7899C71.9909 58.8419 71.9909 58.8419 74.0966 57.8125C75.3351 56.5651 75.5028 55.505 75.5028 53.75C52.4028 53.75 29.3028 53.75 5.50281 53.75ZM32.3778 61.25C29.9569 65.4592 29.9569 65.4592 28.0028 70C28.1841 70.544 28.3035 70.8507 28.8222 71.1187C29.3015 71.2649 29.6938 71.2898 30.1946 71.2907C30.3837 71.2918 30.5727 71.293 30.7675 71.2941C31.0766 71.2935 31.0766 71.2935 31.3921 71.2929C31.6123 71.2936 31.8326 71.2944 32.0529 71.2953C32.6501 71.2974 33.2473 71.2975 33.8446 71.2971C34.3435 71.297 34.8425 71.2977 35.3414 71.2985C36.5187 71.3002 37.696 71.3003 38.8733 71.2993C40.087 71.2984 41.3007 71.3003 42.5145 71.3036C43.5574 71.3064 44.6002 71.3073 45.6431 71.3068C46.2656 71.3065 46.8881 71.3069 47.5107 71.3091C48.0961 71.3111 48.6816 71.3108 49.267 71.3087C49.5837 71.3082 49.9003 71.31 50.217 71.3118C50.4064 71.3107 50.5959 71.3096 50.7911 71.3085C51.0372 71.3085 51.0372 71.3085 51.2882 71.3086C51.8387 71.2392 52.216 71.065 52.6903 70.7813C52.9128 70.3364 52.8854 70.0272 52.8466 69.5313C52.6966 69.1516 52.5425 68.8097 52.3546 68.4503C52.3033 68.3486 52.252 68.2468 52.1991 68.142C52.0326 67.8131 51.8635 67.4857 51.6942 67.1582C51.5794 66.9328 51.4648 66.7074 51.3502 66.4819C50.5112 64.8336 49.6551 63.1941 48.7841 61.5625C48.7325 61.4594 48.6809 61.3563 48.6278 61.25C43.2653 61.25 37.9028 61.25 32.3778 61.25Z" fill="#E57D90"/>
<path d="M12.0369 12.4207C12.157 12.4197 12.2771 12.4188 12.4008 12.4177C12.8017 12.4153 13.2025 12.4172 13.6034 12.4192C13.8914 12.4183 14.1794 12.4172 14.4674 12.4159C15.2487 12.413 16.0299 12.4141 16.8111 12.4161C17.629 12.4177 18.4468 12.4162 19.2647 12.4152C20.6381 12.4141 22.0115 12.4156 23.3849 12.4186C24.9724 12.422 26.5598 12.4209 28.1473 12.4174C29.5107 12.4146 30.874 12.4142 32.2374 12.4158C33.0515 12.4168 33.8656 12.4169 34.6797 12.4149C35.4451 12.4131 36.2105 12.4143 36.9759 12.4179C37.2567 12.4188 37.5375 12.4185 37.8183 12.4172C38.2018 12.4154 38.5851 12.4176 38.9687 12.4207C39.0796 12.4193 39.1905 12.4179 39.3048 12.4165C40.0859 12.4288 40.524 12.6398 41.1278 13.1251C41.7977 13.893 41.8432 14.5013 41.8337 15.4737C41.8348 15.6125 41.8359 15.7514 41.837 15.8944C41.8397 16.3516 41.8379 16.8085 41.8358 17.2657C41.8362 17.5844 41.8368 17.9031 41.8376 18.2218C41.8385 18.889 41.8372 19.5562 41.8343 20.2235C41.8307 21.0778 41.8328 21.932 41.8365 22.7863C41.8388 23.4442 41.838 24.1021 41.8364 24.76C41.836 25.075 41.8365 25.3899 41.838 25.7049C41.8396 26.1455 41.8371 26.5859 41.8337 27.0264C41.8349 27.156 41.8362 27.2856 41.8375 27.4191C41.8254 28.2461 41.6906 28.7299 41.1278 29.3751C40.4135 29.9491 39.8637 30.0907 38.9687 30.0794C38.8486 30.0804 38.7285 30.0814 38.6048 30.0824C38.2039 30.0849 37.8031 30.0829 37.4022 30.0809C37.1142 30.0818 36.8262 30.0829 36.5381 30.0843C35.7569 30.0871 34.9757 30.086 34.1944 30.084C33.3766 30.0824 32.5587 30.0839 31.7409 30.0849C30.3675 30.086 28.9941 30.0845 27.6207 30.0815C26.0332 30.0781 24.4458 30.0792 22.8583 30.0827C21.4949 30.0855 20.1316 30.0859 18.7682 30.0843C17.9541 30.0833 17.14 30.0832 16.3259 30.0853C15.5605 30.0871 14.7951 30.0858 14.0297 30.0822C13.7489 30.0814 13.4681 30.0816 13.1873 30.083C12.8038 30.0847 12.4204 30.0825 12.0369 30.0794C11.926 30.0808 11.8151 30.0822 11.7008 30.0837C10.9197 30.0714 10.4816 29.8604 9.8778 29.3751C9.20787 28.6071 9.16243 27.9989 9.17193 27.0264C9.17083 26.8876 9.16974 26.7488 9.16861 26.6057C9.16586 26.1486 9.16767 25.6916 9.16979 25.2344C9.16937 24.9157 9.16876 24.597 9.16798 24.2783C9.16706 23.6111 9.16839 22.9439 9.17132 22.2767C9.17488 21.4223 9.17283 20.5681 9.16908 19.7138C9.16682 19.0559 9.16754 18.398 9.16916 17.7401C9.16958 17.4252 9.16907 17.1102 9.16761 16.7952C9.16602 16.3546 9.16845 15.9143 9.17193 15.4737C9.17066 15.3441 9.1694 15.2146 9.16809 15.0811C9.18015 14.254 9.31501 13.7702 9.8778 13.1251C10.592 12.551 11.1419 12.4095 12.0369 12.4207ZM11.7528 15.0001C11.7528 19.1251 11.7528 23.2501 11.7528 27.5001C20.8278 27.5001 29.9028 27.5001 39.2528 27.5001C39.2528 23.3751 39.2528 19.2501 39.2528 15.0001C30.1778 15.0001 21.1028 15.0001 11.7528 15.0001Z" fill="#E57D90"/>
<path d="M29.4969 32.4191C29.6114 32.418 29.7258 32.4169 29.8438 32.4158C30.2198 32.4131 30.5956 32.4149 30.9715 32.417C31.2342 32.4166 31.4969 32.416 31.7595 32.4152C32.3091 32.4143 32.8585 32.4156 33.4081 32.4185C34.1111 32.4221 34.8139 32.42 35.517 32.4163C36.059 32.414 36.6011 32.4147 37.1432 32.4164C37.4023 32.4168 37.6615 32.4163 37.9206 32.4148C38.2834 32.4132 38.6459 32.4156 39.0087 32.4191C39.2147 32.4196 39.4208 32.4201 39.633 32.4206C40.4951 32.5434 40.9405 32.9029 41.4938 33.559C41.8044 34.1627 41.832 34.5668 41.8337 35.2441C41.8348 35.3586 41.8359 35.473 41.837 35.591C41.8397 35.967 41.8379 36.3428 41.8358 36.7187C41.8362 36.9814 41.8368 37.2441 41.8376 37.5067C41.8385 38.0562 41.8372 38.6057 41.8343 39.1553C41.8307 39.8583 41.8328 40.5611 41.8365 41.2641C41.8388 41.8062 41.8381 42.3483 41.8364 42.8904C41.836 43.1495 41.8365 43.4087 41.838 43.6678C41.8396 44.0306 41.8371 44.3931 41.8337 44.7558C41.8332 44.9619 41.8327 45.1679 41.8322 45.3802C41.7094 46.2422 41.3498 46.6877 40.6938 47.241C40.09 47.5515 39.6859 47.5792 39.0087 47.5809C38.8942 47.582 38.7797 47.5831 38.6618 47.5842C38.2858 47.5869 37.91 47.5851 37.534 47.583C37.2714 47.5834 37.0087 47.584 36.7461 47.5848C36.1965 47.5857 35.6471 47.5844 35.0975 47.5815C34.3945 47.5779 33.6917 47.58 32.9886 47.5837C32.4466 47.586 31.9045 47.5852 31.3624 47.5836C31.1033 47.5832 30.8441 47.5837 30.585 47.5852C30.2222 47.5868 29.8597 47.5843 29.4969 47.5809C29.2909 47.5804 29.0848 47.5799 28.8725 47.5794C28.0105 47.4566 27.5651 47.097 27.0118 46.441C26.7012 45.8372 26.6736 45.4331 26.6719 44.7558C26.6708 44.6414 26.6697 44.5269 26.6686 44.409C26.6659 44.033 26.6677 43.6572 26.6698 43.2812C26.6694 43.0186 26.6688 42.7559 26.668 42.4933C26.6671 41.9437 26.6684 41.3943 26.6713 40.8447C26.6749 40.1417 26.6728 39.4388 26.6691 38.7358C26.6668 38.1937 26.6675 37.6517 26.6692 37.1096C26.6696 36.8504 26.6691 36.5913 26.6676 36.3322C26.666 35.9694 26.6685 35.6069 26.6719 35.2441C26.6724 35.0381 26.6729 34.832 26.6734 34.6197C26.7962 33.7577 27.1558 33.3123 27.8118 32.759C28.4155 32.4484 28.8196 32.4208 29.4969 32.4191ZM29.2528 35C29.2528 38.3 29.2528 41.6 29.2528 45C32.5528 45 35.8528 45 39.2528 45C39.2528 41.7 39.2528 38.4 39.2528 35C35.9528 35 32.6528 35 29.2528 35Z" fill="#E57D90"/>
<path d="M11.9969 32.4191C12.1114 32.418 12.2258 32.4169 12.3438 32.4158C12.7198 32.4131 13.0956 32.4149 13.4715 32.417C13.7342 32.4166 13.9969 32.416 14.2595 32.4152C14.8091 32.4143 15.3585 32.4156 15.9081 32.4185C16.6111 32.4221 17.3139 32.42 18.017 32.4163C18.559 32.414 19.1011 32.4147 19.6432 32.4164C19.9023 32.4168 20.1615 32.4163 20.4206 32.4148C20.7834 32.4132 21.1459 32.4156 21.5087 32.4191C21.7147 32.4196 21.9208 32.4201 22.133 32.4206C22.9951 32.5434 23.4405 32.9029 23.9938 33.559C24.3044 34.1627 24.332 34.5668 24.3337 35.2441C24.3348 35.3586 24.3359 35.473 24.337 35.591C24.3397 35.967 24.3379 36.3428 24.3358 36.7187C24.3362 36.9814 24.3368 37.2441 24.3376 37.5067C24.3385 38.0562 24.3372 38.6057 24.3343 39.1553C24.3307 39.8583 24.3328 40.5611 24.3365 41.2641C24.3388 41.8062 24.3381 42.3483 24.3364 42.8904C24.336 43.1495 24.3365 43.4087 24.338 43.6678C24.3396 44.0306 24.3371 44.3931 24.3337 44.7558C24.3332 44.9619 24.3327 45.1679 24.3322 45.3802C24.2094 46.2422 23.8498 46.6877 23.1938 47.241C22.59 47.5515 22.1859 47.5792 21.5087 47.5809C21.3942 47.582 21.2797 47.5831 21.1618 47.5842C20.7858 47.5869 20.41 47.5851 20.034 47.583C19.7714 47.5834 19.5087 47.584 19.2461 47.5848C18.6965 47.5857 18.1471 47.5844 17.5975 47.5815C16.8945 47.5779 16.1917 47.58 15.4886 47.5837C14.9466 47.586 14.4045 47.5852 13.8624 47.5836C13.6033 47.5832 13.3441 47.5837 13.085 47.5852C12.7222 47.5868 12.3597 47.5843 11.9969 47.5809C11.7909 47.5804 11.5848 47.5799 11.3725 47.5794C10.5105 47.4566 10.0651 47.097 9.51176 46.441C9.20124 45.8372 9.17356 45.4331 9.17193 44.7558C9.17083 44.6414 9.16974 44.5269 9.16861 44.409C9.16587 44.033 9.16767 43.6572 9.16979 43.2812C9.16937 43.0186 9.16876 42.7559 9.16798 42.4933C9.16706 41.9437 9.16839 41.3943 9.17132 40.8447C9.17488 40.1417 9.17283 39.4388 9.16908 38.7358C9.16682 38.1937 9.16755 37.6517 9.16916 37.1096C9.16958 36.8504 9.16907 36.5913 9.16761 36.3322C9.16602 35.9694 9.16846 35.6069 9.17193 35.2441C9.17242 35.0381 9.17292 34.832 9.17343 34.6197C9.2962 33.7577 9.65575 33.3123 10.3118 32.759C10.9155 32.4484 11.3196 32.4208 11.9969 32.4191ZM11.7528 35C11.7528 38.3 11.7528 41.6 11.7528 45C15.0528 45 18.3528 45 21.7528 45C21.7528 41.7 21.7528 38.4 21.7528 35C18.4528 35 15.1528 35 11.7528 35Z" fill="#E57D90"/>
<path d="M51.958 44.9206C52.1263 44.9188 52.2945 44.9171 52.4679 44.9153C52.7435 44.9172 52.7435 44.9172 53.0248 44.9191C53.316 44.9175 53.316 44.9175 53.6131 44.9158C54.1452 44.9135 54.6771 44.914 55.2092 44.916C55.7661 44.9176 56.323 44.9161 56.8799 44.9152C57.8151 44.914 58.7503 44.9155 59.6855 44.9185C60.7666 44.9219 61.8476 44.9208 62.9287 44.9173C63.8571 44.9145 64.7854 44.9141 65.7138 44.9157C66.2682 44.9167 66.8225 44.9169 67.3769 44.9148C67.9949 44.9126 68.6128 44.9156 69.2308 44.9191C69.4146 44.9178 69.5984 44.9166 69.7878 44.9153C70.0401 44.9179 70.0401 44.9179 70.2976 44.9206C70.4437 44.9208 70.5898 44.9211 70.7403 44.9213C71.2448 45.0237 71.4326 45.2309 71.7528 45.625C71.8358 45.9375 71.8358 45.9375 71.8309 46.25C71.8333 46.4047 71.8333 46.4047 71.8358 46.5625C71.715 47.0175 71.4871 47.202 71.1278 47.5C70.7403 47.5786 70.7403 47.5786 70.2976 47.5793C70.1293 47.5811 69.9611 47.5829 69.7878 47.5847C69.5121 47.5828 69.5121 47.5828 69.2308 47.5808C68.9396 47.5825 68.9396 47.5825 68.6425 47.5842C68.1104 47.5864 67.5785 47.5859 67.0464 47.5839C66.4895 47.5823 65.9326 47.5838 65.3757 47.5848C64.4405 47.5859 63.5053 47.5844 62.5701 47.5815C61.489 47.5781 60.408 47.5792 59.3269 47.5826C58.3986 47.5854 57.4702 47.5858 56.5419 47.5842C55.9875 47.5832 55.4331 47.5831 54.8787 47.5852C54.2607 47.5873 53.6428 47.5843 53.0248 47.5808C52.841 47.5821 52.6572 47.5834 52.4679 47.5847C52.2155 47.582 52.2155 47.582 51.958 47.5793C51.8119 47.5791 51.6658 47.5789 51.5153 47.5786C51.0108 47.4762 50.823 47.269 50.5028 46.875C50.4198 46.5625 50.4198 46.5625 50.4247 46.25C50.4223 46.0953 50.4223 46.0953 50.4198 45.9375C50.6312 45.1415 51.1969 44.9218 51.958 44.9206Z" fill="#E57D90"/>
<path d="M51.958 38.6706C52.1263 38.6688 52.2945 38.6671 52.4679 38.6653C52.7435 38.6672 52.7435 38.6672 53.0248 38.6691C53.316 38.6675 53.316 38.6675 53.6131 38.6658C54.1452 38.6635 54.6771 38.664 55.2092 38.666C55.7661 38.6676 56.323 38.6661 56.8799 38.6652C57.8151 38.664 58.7503 38.6655 59.6855 38.6685C60.7666 38.6719 61.8476 38.6708 62.9287 38.6673C63.8571 38.6645 64.7854 38.6641 65.7138 38.6657C66.2682 38.6667 66.8225 38.6669 67.3769 38.6648C67.9949 38.6626 68.6128 38.6656 69.2308 38.6691C69.4146 38.6678 69.5984 38.6666 69.7878 38.6653C70.0401 38.6679 70.0401 38.6679 70.2976 38.6706C70.4437 38.6708 70.5898 38.6711 70.7403 38.6713C71.2448 38.7737 71.4326 38.9809 71.7528 39.375C71.8358 39.6875 71.8358 39.6875 71.8309 40C71.8333 40.1547 71.8333 40.1547 71.8358 40.3125C71.715 40.7675 71.4871 40.952 71.1278 41.25C70.7403 41.3286 70.7403 41.3286 70.2976 41.3293C70.1293 41.3311 69.9611 41.3329 69.7878 41.3347C69.5121 41.3328 69.5121 41.3328 69.2308 41.3308C68.9396 41.3325 68.9396 41.3325 68.6425 41.3342C68.1104 41.3364 67.5785 41.3359 67.0464 41.3339C66.4895 41.3323 65.9326 41.3338 65.3757 41.3348C64.4405 41.3359 63.5053 41.3344 62.5701 41.3315C61.489 41.3281 60.408 41.3292 59.3269 41.3326C58.3986 41.3354 57.4702 41.3358 56.5419 41.3342C55.9875 41.3332 55.4331 41.3331 54.8787 41.3352C54.2607 41.3373 53.6428 41.3343 53.0248 41.3308C52.841 41.3321 52.6572 41.3334 52.4679 41.3347C52.2155 41.332 52.2155 41.332 51.958 41.3293C51.8119 41.3291 51.6658 41.3289 51.5153 41.3286C51.0108 41.2262 50.823 41.019 50.5028 40.625C50.4198 40.3125 50.4198 40.3125 50.4247 40C50.4223 39.8453 50.4223 39.8453 50.4198 39.6875C50.6312 38.8915 51.1969 38.6718 51.958 38.6706Z" fill="#E57D90"/>
<path d="M51.958 32.4206C52.1263 32.4188 52.2945 32.4171 52.4679 32.4153C52.7435 32.4172 52.7435 32.4172 53.0248 32.4191C53.316 32.4175 53.316 32.4175 53.6131 32.4158C54.1452 32.4135 54.6771 32.414 55.2092 32.416C55.7661 32.4176 56.323 32.4161 56.8799 32.4152C57.8151 32.414 58.7503 32.4155 59.6855 32.4185C60.7666 32.4219 61.8476 32.4208 62.9287 32.4173C63.8571 32.4145 64.7854 32.4141 65.7138 32.4157C66.2682 32.4167 66.8225 32.4169 67.3769 32.4148C67.9949 32.4126 68.6128 32.4156 69.2308 32.4191C69.4146 32.4178 69.5984 32.4166 69.7878 32.4153C70.0401 32.4179 70.0401 32.4179 70.2976 32.4206C70.4437 32.4208 70.5898 32.4211 70.7403 32.4213C71.2448 32.5237 71.4326 32.7309 71.7528 33.125C71.8358 33.4375 71.8358 33.4375 71.8309 33.75C71.8333 33.9047 71.8333 33.9047 71.8358 34.0625C71.715 34.5175 71.4871 34.702 71.1278 35C70.7403 35.0786 70.7403 35.0786 70.2976 35.0793C70.1293 35.0811 69.9611 35.0829 69.7878 35.0847C69.5121 35.0828 69.5121 35.0828 69.2308 35.0808C68.9396 35.0825 68.9396 35.0825 68.6425 35.0842C68.1104 35.0864 67.5785 35.0859 67.0464 35.0839C66.4895 35.0823 65.9326 35.0838 65.3757 35.0848C64.4405 35.0859 63.5053 35.0844 62.5701 35.0815C61.489 35.0781 60.408 35.0792 59.3269 35.0826C58.3986 35.0854 57.4702 35.0858 56.5419 35.0842C55.9875 35.0832 55.4331 35.0831 54.8787 35.0852C54.2607 35.0873 53.6428 35.0843 53.0248 35.0808C52.841 35.0821 52.6572 35.0834 52.4679 35.0847C52.2155 35.082 52.2155 35.082 51.958 35.0793C51.8119 35.0791 51.6658 35.0789 51.5153 35.0786C51.0108 34.9762 50.823 34.769 50.5028 34.375C50.4198 34.0625 50.4198 34.0625 50.4247 33.75C50.4223 33.5953 50.4223 33.5953 50.4198 33.4375C50.6312 32.6415 51.1969 32.4218 51.958 32.4206Z" fill="#E57D90"/>
<path d="M67.0501 13.6519C68.0641 13.9559 68.7871 15.3242 69.3895 16.1232C69.4961 16.2631 69.6026 16.4029 69.7124 16.5471C70.2418 17.2454 70.7641 17.9488 71.2755 18.6604C71.3638 18.7829 71.452 18.9054 71.5429 19.0317C71.7489 19.3687 71.8581 19.6101 71.9091 20.0001C71.5859 21.0501 70.9103 21.841 70.2391 22.6954C70.0134 22.9867 69.7877 23.278 69.5623 23.5695C69.4007 23.7776 69.4007 23.7776 69.236 23.99C68.7767 24.5882 68.3394 25.2005 67.9064 25.818C67.6903 26.0939 67.6903 26.0939 67.3778 26.2501C66.2759 26.339 66.2759 26.339 65.7372 26.0157C65.4074 25.4662 65.378 24.9908 65.5028 24.3751C65.7899 23.8339 66.1567 23.3687 66.538 22.8907C66.6345 22.7653 66.7309 22.6398 66.8303 22.5105C67.585 21.5302 67.585 21.5302 67.9825 21.0627C68.071 20.9554 68.1595 20.848 68.2506 20.7374C68.3309 20.6439 68.4111 20.5503 68.4938 20.4539C68.6691 20.1483 68.6691 20.1483 68.5256 19.7706C68.3198 19.3836 68.1014 19.0587 67.8283 18.7166C67.7334 18.5964 67.6385 18.4763 67.5408 18.3525C67.4419 18.2291 67.343 18.1057 67.2411 17.9786C65.4133 15.6817 65.4133 15.6817 65.4247 14.9806C65.5028 14.3751 65.5028 14.3751 65.7372 13.9845C66.1772 13.7205 66.5395 13.6691 67.0501 13.6519Z" fill="#E57D90"/>
<path d="M54.8778 13.7499C55.2684 13.9843 55.2684 13.9843 55.5028 14.3749C55.6228 15.217 55.5435 15.6503 55.0573 16.3525C54.8637 16.6071 54.6671 16.8593 54.4677 17.1093C54.3712 17.2348 54.2747 17.3603 54.1753 17.4895C53.4206 18.4698 53.4206 18.4698 53.0231 18.9373C52.9346 19.0446 52.8462 19.152 52.755 19.2626C52.6748 19.3562 52.5945 19.4497 52.5119 19.5461C52.3366 19.8517 52.3366 19.8517 52.48 20.2294C52.6858 20.6164 52.9042 20.9413 53.1774 21.2835C53.2722 21.4036 53.3671 21.5238 53.4648 21.6476C53.5637 21.7709 53.6626 21.8943 53.7645 22.0214C55.5923 24.3183 55.5923 24.3183 55.5809 25.0194C55.5028 25.6249 55.5028 25.6249 55.2684 26.0155C54.8284 26.2795 54.4661 26.3309 53.9556 26.3482C52.9416 26.0442 52.2186 24.6758 51.6161 23.8769C51.5095 23.737 51.403 23.5971 51.2932 23.453C50.9749 23.0331 50.6599 22.611 50.3466 22.1874C50.2418 22.0467 50.137 21.906 50.029 21.761C49.9304 21.6252 49.8317 21.4894 49.7301 21.3494C49.6419 21.2287 49.5536 21.108 49.4627 20.9836C49.234 20.5928 49.1436 20.2927 49.0966 19.8437C49.438 18.889 50.1501 18.1065 50.7665 17.3144C50.9923 17.0217 51.2179 16.729 51.4434 16.4361C51.551 16.2963 51.6587 16.1566 51.7697 16.0126C52.2273 15.4125 52.6659 14.8 53.0992 14.182C53.5518 13.6042 54.1988 13.6573 54.8778 13.7499Z" fill="#E57D90"/>
<path d="M62.08 13.6921C62.3778 13.7501 62.3778 13.7501 62.7685 13.9747C63.4615 15.1586 62.7931 16.8206 62.4779 18.05C62.4233 18.2672 62.3687 18.4844 62.3143 18.7016C62.2003 19.1543 62.0851 19.6067 61.9691 20.0588C61.8207 20.6373 61.6759 21.2166 61.532 21.7962C61.4205 22.2439 61.3068 22.6911 61.1926 23.1382C61.1383 23.3516 61.0848 23.5652 61.0319 23.779C60.9578 24.0775 60.8806 24.3752 60.8033 24.6729C60.7603 24.8421 60.7172 25.0113 60.6729 25.1857C60.4838 25.6743 60.2797 25.9189 59.8778 26.2501C59.2772 26.4097 58.7712 26.3325 58.2372 26.0255C57.5442 24.8416 58.2126 23.1796 58.5277 21.9502C58.5824 21.733 58.6369 21.5158 58.6914 21.2986C58.8054 20.8459 58.9206 20.3936 59.0366 19.9414C59.185 19.3629 59.3298 18.7836 59.4736 18.204C59.5852 17.7563 59.6989 17.3091 59.8131 16.8621C59.8673 16.6486 59.9209 16.435 59.9738 16.2212C60.0479 15.9228 60.1251 15.625 60.2024 15.3274C60.2454 15.1581 60.2884 14.9889 60.3328 14.8145C60.6817 13.9129 61.1571 13.6353 62.08 13.6921Z" fill="#E57D90"/>
</svg>
