<svg width="81" height="80" viewBox="0 0 81 80" fill="none" xmlns="http://www.w3.org/2000/svg">
<g clip-path="url(#clip0_100_114)">
<path d="M5.7598 -0.0616236C5.97812 -0.0623881 6.19643 -0.0633555 6.41475 -0.0645077C7.0132 -0.0670672 7.61162 -0.0667085 8.21007 -0.0658554C8.85607 -0.0654378 9.50207 -0.0677094 10.1481 -0.0696202C11.4131 -0.0729088 12.6782 -0.0736195 13.9433 -0.0733408C14.9717 -0.0731365 16.0001 -0.0737313 17.0286 -0.0748916C17.3249 -0.0752196 17.6213 -0.0755474 17.9176 -0.0758749C18.1388 -0.0761195 18.1388 -0.0761195 18.3646 -0.076369C21.1538 -0.0793221 23.943 -0.0791585 26.7322 -0.0780925C29.2828 -0.0772215 31.8334 -0.0804749 34.3841 -0.0856489C37.004 -0.090922 39.6239 -0.0932901 42.2438 -0.0925681C43.7143 -0.0922175 45.1848 -0.0930341 46.6553 -0.0969263C47.9073 -0.100212 49.1592 -0.100769 50.4112 -0.097817C51.0497 -0.0963875 51.6881 -0.0962033 52.3266 -0.099435C52.9118 -0.102364 53.4969 -0.101649 54.082 -0.0980998C54.3926 -0.0971393 54.7032 -0.100002 55.0137 -0.103027C56.3479 -0.0898632 57.4342 0.131546 58.4516 1.04335C59.4097 2.04559 59.7958 3.20383 59.7766 4.57123C59.7687 4.78831 59.7687 4.78831 59.7607 5.00977C59.7579 5.15992 59.7551 5.31008 59.7522 5.46479C59.7449 5.83086 59.7347 6.19659 59.7216 6.5625C59.8536 6.56164 59.8536 6.56164 59.9881 6.56076C62.1337 6.54692 64.2792 6.53664 66.4247 6.53012C67.4623 6.52686 68.4999 6.52245 69.5375 6.51535C70.5394 6.50855 71.5414 6.50482 72.5434 6.5032C72.925 6.50205 73.3066 6.4998 73.6882 6.49642C74.2241 6.49186 74.7599 6.49126 75.2959 6.49155C75.5307 6.48818 75.5307 6.48818 75.7703 6.48474C77.0134 6.49195 78.1392 6.77942 79.1455 7.53907C79.9979 8.4113 80.5213 9.28456 80.5243 10.5192C80.5251 10.6928 80.5259 10.8664 80.5267 11.0453C80.5268 11.3326 80.5268 11.3326 80.5269 11.6256C80.5276 11.8285 80.5283 12.0313 80.529 12.2403C80.5309 12.8045 80.5318 13.3687 80.5325 13.9329C80.5334 14.541 80.5352 15.1491 80.5369 15.7572C80.5407 17.2265 80.543 18.6958 80.545 20.1651C80.5456 20.5801 80.5462 20.9951 80.5469 21.4101C80.5508 23.9872 80.5543 26.5644 80.5562 29.1415C80.5567 29.7385 80.5571 30.3356 80.5576 30.9326C80.5577 31.081 80.5578 31.2294 80.558 31.3822C80.5599 33.7854 80.5651 36.1885 80.5716 38.5917C80.5783 41.059 80.5819 43.5264 80.5828 45.9937C80.5833 47.379 80.5851 48.7642 80.5903 50.1495C80.5947 51.3295 80.5964 52.5094 80.5946 53.6893C80.5938 54.2911 80.5942 54.8928 80.5981 55.4946C80.6023 56.1479 80.6004 56.801 80.5979 57.4543C80.6001 57.6433 80.6022 57.8324 80.6045 58.0272C80.592 59.3601 80.3324 60.4254 79.4153 61.429C78.1188 62.6836 76.7664 62.7238 75.043 62.7095C74.8242 62.7093 74.6054 62.7094 74.3867 62.7097C73.796 62.7098 73.2053 62.7071 72.6146 62.7038C71.9961 62.7008 71.3776 62.7006 70.7591 62.7C69.5893 62.6986 68.4195 62.6947 67.2497 62.69C65.9173 62.6848 64.5849 62.6822 63.2526 62.6798C60.5131 62.6749 57.7736 62.6667 55.0341 62.6563C55.0635 62.7593 55.0929 62.8624 55.1231 62.9685C55.4277 64.038 55.7318 65.1075 56.0355 66.1772C56.149 66.5768 56.2627 66.9763 56.3765 67.3758C56.5398 67.9489 56.7026 68.5222 56.8652 69.0955C56.9165 69.275 56.9677 69.4545 57.0205 69.6395C57.0909 69.8882 57.0909 69.8882 57.1627 70.1418C57.2044 70.2883 57.246 70.4347 57.2889 70.5855C57.3779 70.9375 57.3779 70.9375 57.3779 71.25C57.5159 71.2428 57.6538 71.2355 57.796 71.228C59.419 71.1792 60.7468 71.3157 61.9775 72.4512C63.0802 73.5634 63.2479 74.8339 63.2446 76.3461C63.2433 76.4538 63.242 76.5615 63.2406 76.6725C63.2372 77.0041 63.2406 77.3353 63.2446 77.6669C63.2442 77.8792 63.2434 78.0915 63.2421 78.3038C63.2414 78.4945 63.2407 78.6852 63.24 78.8817C63.1394 79.4953 63.0364 79.6375 62.5341 80C62.0563 80.0936 61.5845 80.085 61.0989 80.0804C60.952 80.0815 60.8052 80.0826 60.6539 80.0837C60.1606 80.0866 59.6674 80.085 59.1742 80.0834C58.821 80.0844 58.4679 80.0858 58.1147 80.0874C57.1547 80.091 56.1946 80.0905 55.2345 80.0891C54.4338 80.0883 53.6331 80.0894 52.8324 80.0906C50.8359 80.0934 48.8395 80.0924 46.8431 80.0896C45.1087 80.0873 43.3743 80.0896 41.6399 80.0941C39.8594 80.0987 38.0789 80.1003 36.2984 80.0989C35.2986 80.0982 34.2989 80.0985 33.2991 80.1017C32.3593 80.1046 31.4195 80.1037 30.4797 80.0998C30.1343 80.099 29.7888 80.0996 29.4434 80.1015C28.9728 80.104 28.5025 80.1017 28.0319 80.0982C27.8255 80.1009 27.8255 80.1009 27.615 80.1038C26.6932 80.0896 26.6932 80.0896 26.1993 79.6316C25.9286 79.1406 25.8931 78.8279 25.8941 78.269C25.894 78.0876 25.8939 77.9061 25.8938 77.7191C25.8969 77.5308 25.9001 77.3425 25.9033 77.1484C25.9022 76.9625 25.9011 76.7766 25.8999 76.5851C25.9117 74.9405 26.1742 73.535 27.3779 72.3438C28.525 71.5102 29.3692 71.2229 30.7763 71.2402C30.8853 71.2409 30.9943 71.2416 31.1065 71.2424C31.3741 71.2442 31.6416 71.247 31.9091 71.25C31.9256 71.1039 31.942 70.9579 31.9589 70.8074C32.0727 70.0151 32.2994 69.2564 32.5195 68.4882C32.564 68.3309 32.6085 68.1737 32.6543 68.0117C32.748 67.681 32.8421 67.3505 32.9364 67.0201C33.0812 66.5129 33.225 66.0053 33.3685 65.4977C33.4598 65.1762 33.5511 64.8546 33.6425 64.5331C33.7072 64.3048 33.7072 64.3048 33.7732 64.0719C33.8134 63.9316 33.8535 63.7913 33.8949 63.6467C33.9478 63.4611 33.9478 63.4611 34.0018 63.2718C34.0966 62.9688 34.0966 62.9688 34.2529 62.6563C34.1392 62.657 34.0255 62.6577 33.9083 62.6584C31.1369 62.6757 28.3655 62.6886 25.5941 62.6967C24.2538 62.7008 22.9135 62.7062 21.5733 62.7152C20.4046 62.723 19.236 62.728 18.0674 62.7298C17.449 62.7308 16.8307 62.7332 16.2123 62.7389C15.6293 62.7442 15.0463 62.7458 14.4633 62.7446C14.1493 62.7449 13.8354 62.7491 13.5215 62.7535C12.0577 62.7452 11.0213 62.447 9.89742 61.4941C8.96435 60.369 8.57775 59.4417 8.59241 57.9792C8.59237 57.8587 8.59232 57.7381 8.59227 57.614C8.59249 57.2183 8.59492 56.8227 8.59737 56.427C8.59795 56.1516 8.5984 55.8762 8.59871 55.6008C8.5999 54.8779 8.60297 54.1551 8.60643 53.4323C8.60964 52.6939 8.61106 51.9555 8.61263 51.217C8.61598 49.7697 8.62131 48.3223 8.62789 46.875C8.4877 46.8775 8.34752 46.8799 8.20308 46.8824C7.67774 46.8905 7.15246 46.8963 6.62708 46.9008C6.40068 46.9031 6.17429 46.9063 5.94791 46.9104C3.07043 46.9609 3.07043 46.9609 1.87984 45.9277C0.929582 45.0061 0.470446 44.0344 0.403684 42.7062C0.399078 42.3051 0.398709 41.9039 0.4018 41.5028C0.400739 41.2803 0.399347 41.0579 0.397652 40.8355C0.394114 40.236 0.39546 39.6367 0.397948 39.0372C0.399936 38.4083 0.398089 37.7795 0.396865 37.1507C0.395447 36.096 0.397307 35.0413 0.401037 33.9867C0.405298 32.7676 0.403903 31.5487 0.39961 30.3297C0.396066 29.2812 0.395564 28.2328 0.397609 27.1843C0.398826 26.5588 0.398991 25.9334 0.396409 25.3079C0.394153 24.7207 0.395715 24.1337 0.400232 23.5465C0.401266 23.3311 0.400968 23.1157 0.399246 22.9003C0.397112 22.6064 0.400262 22.3124 0.403684 22.0185C0.403978 21.854 0.404272 21.6896 0.404576 21.5201C0.502889 21.0938 0.502889 21.0938 0.864314 20.7228C1.28414 20.4688 1.28414 20.4688 1.85055 20.4785C2.37772 20.625 2.53403 20.6686 2.84664 21.0938C2.90589 21.4827 2.90589 21.4827 2.90684 21.9554C2.90835 22.1346 2.90985 22.3138 2.91141 22.4984C2.91069 22.6952 2.90998 22.8919 2.90924 23.0946C2.91014 23.3038 2.91124 23.513 2.91254 23.7222C2.91491 24.1729 2.91581 24.6235 2.91559 25.0742C2.91527 25.7874 2.91832 26.5005 2.92186 27.2136C2.92827 28.5996 2.93117 29.9855 2.93376 31.3715C2.93726 33.1334 2.94251 34.8953 2.95051 36.6572C2.95362 37.3655 2.95512 38.0738 2.95535 38.7821C2.95578 39.2238 2.95748 39.6655 2.95949 40.1072C2.96048 40.4084 2.95991 40.7095 2.9593 41.0107C2.94703 42.3397 2.94703 42.3397 3.31539 43.5938C4.18981 44.4275 5.17074 44.3054 6.32381 44.296C6.5374 44.2965 6.75098 44.2973 6.96456 44.2983C7.55063 44.3003 8.13664 44.2984 8.72271 44.2959C9.35506 44.2938 9.98741 44.2954 10.6198 44.2965C11.8582 44.298 13.0966 44.2963 14.335 44.2934C15.7768 44.2901 17.2186 44.2902 18.6605 44.2903C21.2328 44.2905 23.805 44.2876 26.3773 44.2831C28.8741 44.2787 31.3708 44.2765 33.8676 44.2767C34.0983 44.2767 34.0983 44.2767 34.3336 44.2767C34.5639 44.2767 34.5639 44.2767 34.7989 44.2767C37.6404 44.277 40.482 44.2751 43.3235 44.2723C44.3289 44.2714 45.3342 44.271 46.3396 44.2709C47.5644 44.2707 48.7893 44.2693 50.0141 44.2664C50.6392 44.265 51.2643 44.264 51.8894 44.2644C52.4614 44.2648 53.0334 44.2637 53.6054 44.2614C53.9107 44.2606 54.2161 44.2613 54.5215 44.262C54.7027 44.261 54.8838 44.26 55.0704 44.2589C55.3049 44.2586 55.3049 44.2586 55.5441 44.2583C56.005 44.2157 56.34 44.1138 56.7529 43.9063C57.143 43.2684 57.1108 42.583 57.1089 41.8565C57.1098 41.7298 57.1107 41.6031 57.1116 41.4726C57.1143 41.0472 57.1147 40.6218 57.1152 40.1963C57.1167 39.8865 57.1183 39.5766 57.12 39.2668C57.1243 38.4368 57.1267 37.6068 57.1287 36.7768C57.1309 35.9981 57.1347 35.2193 57.1384 34.4406C57.1483 32.1629 57.1555 29.8851 57.163 27.6074C57.1824 22.5189 57.2017 17.4303 57.2216 12.1875C39.2779 12.1875 21.3341 12.1875 2.84664 12.1875C2.84664 13.7344 2.84664 15.2813 2.84664 16.875C2.22164 17.5 2.22164 17.5 1.67476 17.5781C1.12789 17.5 1.12789 17.5 0.786419 17.2644C0.388733 16.7182 0.414184 16.2171 0.419538 15.5666C0.418192 15.4349 0.416846 15.3033 0.415459 15.1676C0.411911 14.732 0.412973 14.2966 0.414389 13.8611C0.41357 13.5574 0.41259 13.2538 0.411454 12.9502C0.409826 12.3131 0.410542 11.6761 0.412824 11.0391C0.4155 10.2257 0.411852 9.41258 0.406342 8.59928C0.402896 7.97165 0.403136 7.34406 0.40443 6.71641C0.404557 6.41679 0.403495 6.11716 0.401185 5.81755C0.379705 2.52561 0.379705 2.52561 1.59503 1.23144C2.87026 0.00124681 4.05117 -0.0686706 5.7598 -0.0616236ZM3.51192 2.86438C2.07756 4.73894 2.84664 7.58914 2.84664 9.6875C20.7904 9.6875 38.7341 9.6875 57.2216 9.6875C57.7706 4.3856 57.7706 4.3856 56.5966 2.8125C55.5301 2.23613 54.4788 2.27813 53.2877 2.28528C53.0792 2.28485 52.8707 2.28422 52.6623 2.2834C52.0918 2.28175 51.5213 2.28301 50.9508 2.28477C50.3346 2.28615 49.7185 2.28483 49.1023 2.28385C47.8962 2.28237 46.6902 2.2834 45.4841 2.2853C44.0793 2.28743 42.6744 2.28717 41.2696 2.28684C38.763 2.28634 36.2564 2.28816 33.7498 2.29122C31.318 2.29419 28.8862 2.2953 26.4543 2.29443C23.8054 2.29348 21.1566 2.29351 18.5077 2.29529C18.2252 2.29547 17.9428 2.29566 17.6603 2.29585C17.5213 2.29595 17.3823 2.29604 17.2392 2.29614C16.2601 2.29674 15.281 2.29668 14.3019 2.29638C13.1088 2.29605 11.9157 2.29687 10.7225 2.29914C10.1138 2.30027 9.50517 2.30091 8.89649 2.30019C8.23665 2.29944 7.57683 2.30111 6.917 2.30302C6.6285 2.30213 6.6285 2.30213 6.33417 2.30123C4.84263 2.27568 4.84263 2.27568 3.51192 2.86438ZM59.7216 9.0625C59.7216 9.8875 59.7216 10.7125 59.7216 11.5625C59.9985 11.5644 59.9985 11.5644 60.281 11.5663C62.0191 11.5784 63.7573 11.5921 65.4954 11.6074C66.389 11.6152 67.2827 11.6225 68.1763 11.6284C69.0385 11.6342 69.9006 11.6414 70.7628 11.6497C71.0919 11.6526 71.4211 11.655 71.7503 11.6568C72.2108 11.6594 72.6713 11.6639 73.1318 11.6689C73.3367 11.6694 73.3367 11.6694 73.5456 11.67C73.6714 11.6717 73.7971 11.6734 73.9267 11.6752C74.09 11.6765 74.09 11.6765 74.2567 11.6779C74.6246 11.7266 74.8748 11.8378 75.1904 12.0313C75.4586 12.5677 75.3725 13.1845 75.3743 13.775C75.3753 13.9233 75.3764 14.0717 75.3774 14.2246C75.3805 14.7171 75.3823 15.2095 75.3839 15.7019C75.3845 15.8698 75.3851 16.0376 75.3858 16.2106C75.3891 17.0988 75.3913 17.987 75.3928 18.8752C75.3945 19.794 75.3999 20.7128 75.4061 21.6316C75.4101 22.3369 75.4115 23.0422 75.412 23.7476C75.4128 24.0864 75.4146 24.4251 75.4175 24.7639C75.4213 25.2375 75.4212 25.711 75.4201 26.1846C75.4231 26.3953 75.4231 26.3953 75.4261 26.6102C75.4182 27.5595 75.4182 27.5595 75.0498 28.0577C74.673 28.3144 74.5226 28.349 74.0771 28.2813C73.9704 28.2684 73.8636 28.2555 73.7536 28.2422C73.4716 28.125 73.4716 28.125 73.3009 27.8867C73.0965 27.329 73.1109 26.7821 73.1093 26.1955C73.1077 26.0644 73.1062 25.9332 73.1046 25.7981C73.0997 25.3652 73.0971 24.9324 73.0944 24.4995C73.0915 24.1991 73.0885 23.8988 73.0853 23.5984C73.0772 22.8083 73.0711 22.0181 73.0652 21.228C73.0579 20.2797 73.0483 19.3314 73.039 18.3831C73.0252 16.9429 73.0143 15.5027 73.0029 14.0625C68.6201 14.0625 64.2373 14.0625 59.7216 14.0625C59.7176 16.1649 59.7136 18.2673 59.7094 20.4334C59.7055 21.7649 59.7014 23.0965 59.6966 24.4281C59.689 26.5418 59.6821 28.6555 59.6793 30.7693C59.6773 32.3087 59.673 33.8482 59.6662 35.3876C59.6627 36.2025 59.6602 37.0173 59.6604 37.8322C59.6605 38.5999 59.6577 39.3675 59.6527 40.1352C59.6514 40.4163 59.6511 40.6973 59.652 40.9783C59.6565 42.6448 59.5521 43.9805 58.6767 45.4395C57.8783 46.1948 56.8618 46.7367 55.7531 46.7404C55.6118 46.7413 55.4704 46.7421 55.3248 46.743C55.1693 46.7432 55.0138 46.7433 54.8536 46.7435C54.6886 46.7442 54.5236 46.745 54.3535 46.7458C53.7979 46.7482 53.2423 46.7495 52.6866 46.7508C52.2894 46.7523 51.8922 46.7539 51.4949 46.7555C50.6383 46.7589 49.7817 46.7618 48.9251 46.7642C47.6866 46.7678 46.4481 46.7722 45.2096 46.7768C43.2003 46.7842 41.191 46.791 39.1817 46.7973C37.2296 46.8034 35.2776 46.8099 33.3255 46.8168C33.1451 46.8175 33.1451 46.8175 32.961 46.8181C32.3575 46.8203 31.7541 46.8224 31.1506 46.8245C26.1431 46.8424 21.1355 46.859 16.1279 46.875C16.1279 48.0609 16.1279 49.2469 16.1279 50.4688C34.8966 50.4688 53.6654 50.4688 73.0029 50.4688C73.0545 44.4359 73.106 38.4031 73.1591 32.1875C73.7841 31.5625 73.7841 31.5625 74.3408 31.4941C74.8779 31.5625 74.8779 31.5625 75.1422 31.75C75.4194 32.1313 75.4052 32.3802 75.4051 32.8497C75.4062 33.0192 75.4073 33.1888 75.4084 33.3635C75.4072 33.5496 75.406 33.7356 75.4048 33.9273C75.4054 34.1232 75.406 34.3191 75.4065 34.521C75.4076 35.0585 75.4065 35.596 75.4045 36.1335C75.4027 36.6957 75.4033 37.2579 75.4036 37.8201C75.4038 38.7642 75.402 39.7084 75.3992 40.6525C75.3959 41.7445 75.3953 42.8365 75.3963 43.9284C75.3972 44.9784 75.3963 46.0283 75.3945 47.0782C75.3938 47.5253 75.3937 47.9724 75.394 48.4194C75.3944 49.0434 75.3921 49.6674 75.3896 50.2914C75.3901 50.5705 75.3901 50.5705 75.3907 50.8552C75.3896 51.0248 75.3885 51.1944 75.3874 51.3691C75.3871 51.5167 75.3867 51.6643 75.3864 51.8163C75.3466 52.1875 75.3466 52.1875 75.0341 52.6563C74.5125 52.8301 74.1227 52.8328 73.5729 52.8339C73.4712 52.8343 73.3696 52.8347 73.2649 52.8352C72.9221 52.8364 72.5793 52.8365 72.2365 52.8365C71.9891 52.8372 71.7418 52.8379 71.4944 52.8386C70.8129 52.8405 70.1314 52.8414 69.4499 52.8421C68.7156 52.843 67.9813 52.8448 67.247 52.8465C65.473 52.8503 63.6989 52.8526 61.9249 52.8546C61.4241 52.8552 60.9233 52.8558 60.4225 52.8565C57.3144 52.8604 54.2064 52.8639 51.0983 52.8658C50.3783 52.8663 49.6582 52.8667 48.9382 52.8672C48.7592 52.8673 48.5802 52.8674 48.3959 52.8676C45.4946 52.8695 42.5933 52.8747 39.692 52.8812C36.7152 52.8879 33.7385 52.8915 30.7618 52.8924C29.0897 52.8929 27.4176 52.8947 25.7454 52.8999C24.3218 52.9042 22.8983 52.906 21.4747 52.9042C20.748 52.9034 20.0214 52.9039 19.2947 52.9077C18.6299 52.9112 17.9651 52.9111 17.3003 52.9082C17.0594 52.9077 16.8185 52.9086 16.5776 52.911C16.2507 52.9139 15.9241 52.9121 15.5973 52.9091C15.4155 52.9093 15.2338 52.9095 15.0466 52.9097C14.4139 52.7819 14.1801 52.531 13.7841 52.0313C13.7048 51.5986 13.6712 51.2588 13.6737 50.827C13.6713 50.7137 13.6689 50.6003 13.6665 50.4836C13.6598 50.1238 13.6584 49.7642 13.6572 49.4043C13.6536 49.1594 13.6496 48.9146 13.6453 48.6697C13.6348 48.0714 13.6315 47.4736 13.6279 46.875C12.8029 46.875 11.9779 46.875 11.1279 46.875C11.1173 48.4098 11.1087 49.9446 11.1036 51.4794C11.1012 52.1922 11.0978 52.9048 11.0925 53.6175C11.0874 54.3054 11.0846 54.9933 11.0834 55.6812C11.0826 55.9436 11.0809 56.2059 11.0783 56.4682C11.0749 56.8359 11.0745 57.2035 11.0747 57.5712C11.073 57.6795 11.0713 57.7877 11.0696 57.8992C11.0739 58.5792 11.1754 58.9954 11.5966 59.5313C12.2189 60.1359 12.6167 60.2345 13.4768 60.2349C13.6407 60.2363 13.6407 60.2363 13.808 60.2377C14.1752 60.2399 14.5423 60.2378 14.9095 60.2356C15.175 60.2363 15.4405 60.2373 15.7061 60.2386C16.4365 60.2412 17.1669 60.2399 17.8973 60.238C18.6847 60.2365 19.4722 60.2387 20.2596 60.2404C21.8025 60.2432 23.3454 60.2426 24.8884 60.2408C26.1422 60.2394 27.3959 60.2392 28.6497 60.2399C28.9172 60.24 28.9172 60.24 29.19 60.2402C29.5522 60.2404 29.9143 60.2406 30.2765 60.2408C33.6745 60.2426 37.0726 60.2405 40.4706 60.2372C43.3874 60.2344 46.3043 60.2349 49.2211 60.2377C52.6066 60.2411 55.992 60.2424 59.3775 60.2405C59.7384 60.2403 60.0993 60.2401 60.4602 60.2399C60.6377 60.2398 60.8153 60.2397 60.9983 60.2396C62.2507 60.2391 63.5032 60.24 64.7557 60.2414C66.2818 60.2432 67.8078 60.2427 69.3339 60.2394C70.1128 60.2377 70.8917 60.2371 71.6706 60.2392C72.3834 60.241 73.096 60.24 73.8088 60.2367C74.0669 60.236 74.325 60.2363 74.5832 60.2379C74.9336 60.2397 75.2839 60.2378 75.6343 60.2349C75.8291 60.2348 76.0239 60.2347 76.2246 60.2346C76.8588 60.1406 77.1942 59.9308 77.6904 59.5313C78.1435 58.8516 78.1786 58.2523 78.1797 57.4492C78.1803 57.2835 78.1809 57.1178 78.1815 56.9471C78.1813 56.6755 78.1813 56.6755 78.1811 56.3984C78.1815 56.2052 78.182 56.0121 78.1825 55.8132C78.1836 55.2775 78.184 54.7419 78.1842 54.2063C78.1844 53.6285 78.1856 53.0507 78.1867 52.4728C78.1888 51.2096 78.1897 49.9464 78.1904 48.6831C78.1908 47.8943 78.1915 47.1054 78.1922 46.3166C78.1941 44.1321 78.1957 41.9477 78.1963 39.7633C78.1963 39.6235 78.1963 39.4837 78.1964 39.3397C78.1964 39.1996 78.1964 39.0596 78.1965 38.9152C78.1965 38.6313 78.1966 38.3474 78.1967 38.0635C78.1967 37.9227 78.1967 37.7819 78.1968 37.6368C78.1974 35.3547 78.2001 33.0726 78.2038 30.7906C78.2075 28.4472 78.2094 26.1038 78.2096 23.7604C78.2097 22.4448 78.2106 21.1292 78.2135 19.8137C78.2159 18.6935 78.2167 17.5734 78.2154 16.4533C78.2148 15.8819 78.2149 15.3106 78.2171 14.7392C78.2195 14.1195 78.2182 13.4997 78.2166 12.8799C78.2178 12.6999 78.2191 12.5198 78.2204 12.3343C78.2142 11.3409 78.1254 10.5865 77.6904 9.6875C77.0295 9.03923 76.4385 8.98999 75.5554 8.98474C75.3995 8.98699 75.2437 8.98923 75.083 8.99155C74.8337 8.99141 74.8337 8.99141 74.5793 8.99127C74.0314 8.99171 73.4836 8.99656 72.9358 9.00147C72.5553 9.00263 72.1747 9.00352 71.7942 9.00415C70.794 9.00653 69.7937 9.01267 68.7935 9.01959C67.7723 9.02599 66.7511 9.02884 65.7299 9.03199C63.7272 9.03868 61.7244 9.04935 59.7216 9.0625ZM36.9091 62.6563C36.1934 64.893 36.1934 64.893 35.5383 67.1454C35.5049 67.266 35.4716 67.3867 35.4372 67.511C35.3349 67.8815 35.2333 68.2523 35.1318 68.623C35.0608 68.8805 34.9898 69.138 34.9188 69.3954C34.7483 70.0135 34.5785 70.6317 34.4091 71.25C34.6542 71.2519 34.6542 71.2519 34.9043 71.2538C36.4424 71.2659 37.9806 71.2796 39.5187 71.2949C40.3095 71.3027 41.1003 71.31 41.8912 71.3159C42.6541 71.3217 43.4169 71.3289 44.1798 71.3372C44.4711 71.3401 44.7625 71.3425 45.0539 71.3443C45.4613 71.3469 45.8687 71.3514 46.2761 71.3564C46.3971 71.3568 46.5182 71.3571 46.6429 71.3575C47.2312 71.3667 47.5011 71.3842 48.0029 71.7188C48.1335 72.2612 48.2149 72.6495 48.0322 73.1836C47.8466 73.4375 47.8466 73.4375 47.5341 73.5938C47.3027 73.609 47.0705 73.6146 46.8385 73.6153C46.619 73.6166 46.619 73.6166 46.3951 73.6179C46.2341 73.6181 46.073 73.6182 45.9071 73.6184C45.7379 73.6192 45.5686 73.62 45.3943 73.6208C45.0258 73.6225 44.6573 73.6238 44.2888 73.6249C43.7057 73.6267 43.1226 73.6298 42.5395 73.6332C40.8812 73.6428 39.2228 73.6513 37.5645 73.6565C36.551 73.6597 35.5376 73.6653 34.5241 73.6722C34.1376 73.6744 33.7511 73.6758 33.3646 73.6763C32.8237 73.677 32.2829 73.6807 31.7421 73.6849C31.5823 73.6845 31.4225 73.684 31.2579 73.6835C30.4206 73.6933 29.8181 73.7441 29.0966 74.2188C28.1489 75.2646 28.4716 76.1033 28.4716 77.6562C39.0935 77.6562 49.7154 77.6562 60.6591 77.6562C60.9426 75.1367 60.9426 75.1367 59.8779 74.0625C59.4243 73.7582 59.0731 73.7105 58.5321 73.7076C58.3902 73.706 58.2484 73.7044 58.1023 73.7028C57.9502 73.7025 57.7982 73.7021 57.6416 73.7018C57.3189 73.6979 56.9962 73.6939 56.6735 73.6899C56.1654 73.6854 55.6572 73.6816 55.149 73.6787C54.6582 73.6753 54.1675 73.6692 53.6767 73.6627C53.5247 73.6627 53.3727 73.6627 53.216 73.6627C53.0742 73.6606 52.9324 73.6585 52.7862 73.6563C52.6618 73.6556 52.5374 73.6548 52.4092 73.6539C51.9726 73.5775 51.7572 73.4321 51.4404 73.125C51.3548 72.5366 51.3319 72.1903 51.6723 71.6913C52.2403 71.2794 52.7467 71.3016 53.4326 71.2891C53.5564 71.2844 53.6803 71.2798 53.8079 71.275C54.1124 71.264 54.417 71.2567 54.7216 71.25C54.1393 68.3385 53.202 65.5088 52.3779 62.6563C47.2732 62.6563 42.1685 62.6563 36.9091 62.6563Z" fill="#E57D90"/>
<path d="M54.2529 15.0001C54.5556 15.254 54.5556 15.254 54.7216 15.6251C54.6502 16.6055 54.4091 17.4976 54.1234 18.4352C54.0781 18.5866 54.0328 18.7381 53.9862 18.8941C53.8361 19.3951 53.6847 19.8956 53.5333 20.3962C53.4265 20.7516 53.3199 21.1071 53.2134 21.4626C52.9312 22.403 52.6479 23.343 52.3643 24.283C52.0294 25.3941 51.6958 26.5055 51.362 27.6169C51.0877 28.5302 50.8131 29.4434 50.5378 30.3564C49.9964 32.153 49.4589 33.9505 48.9296 35.7507C48.8285 36.0936 48.7275 36.4364 48.6264 36.7793C48.4375 37.42 48.25 38.0611 48.0632 38.7024C47.9788 38.989 47.8943 39.2755 47.8098 39.5621C47.7542 39.7553 47.7542 39.7553 47.6974 39.9525C47.5055 40.5987 47.3087 41.1652 46.9091 41.7188C46.4124 41.9671 46.0504 41.94 45.5029 41.8751C44.8057 41.1845 44.4758 40.4556 44.1326 39.5472C44.0817 39.4167 44.0308 39.2863 43.9783 39.1518C43.8175 38.7386 43.6592 38.3244 43.5009 37.9102C43.3917 37.6284 43.2824 37.3466 43.1729 37.0649C42.906 36.3773 42.6413 35.6889 42.3779 35.0001C40.5531 35.212 38.7522 35.498 36.9451 35.8314C34.4261 36.2821 34.4261 36.2821 33.6181 35.8204C32.7753 34.4066 33.7523 31.6893 34.0283 30.1172C34.0803 29.8172 34.1323 29.5171 34.1842 29.217C34.3104 28.4883 34.4376 27.7597 34.5654 27.0313C34.477 27.0025 34.3887 26.9737 34.2977 26.944C33.2141 26.5873 32.153 26.1819 31.0932 25.7604C30.7753 25.6344 30.4566 25.5103 30.1379 25.3861C29.9332 25.3049 29.7285 25.2237 29.5239 25.1423C29.2489 25.0338 29.2489 25.0338 28.9683 24.9232C28.4669 24.6853 28.0931 24.4434 27.6904 24.0626C27.5146 23.5254 27.5146 23.5254 27.5341 22.9688C28.1472 22.1674 28.8271 21.958 29.7571 21.6913C29.9019 21.6476 30.0467 21.6039 30.1958 21.5588C30.6773 21.4141 31.1598 21.2729 31.6424 21.1316C31.985 21.0294 32.3276 20.9269 32.6701 20.8241C33.3966 20.6067 34.1236 20.3907 34.8509 20.1757C35.9541 19.8495 37.056 19.5189 38.1577 19.1872C40.1747 18.5803 42.1928 17.9768 44.2111 17.3742C44.9728 17.1466 45.7345 16.9188 46.4962 16.691C47.2351 16.47 47.974 16.2491 48.713 16.0283C49.0627 15.9238 49.4124 15.8192 49.7621 15.7147C50.2434 15.5708 50.7248 15.427 51.2062 15.2833C51.4193 15.2196 51.4193 15.2196 51.6367 15.1545C51.7671 15.1156 51.8976 15.0767 52.032 15.0366C52.1448 15.003 52.2576 14.9693 52.3737 14.9346C52.4782 14.9046 52.5827 14.8747 52.6904 14.8438C52.7972 14.8118 52.904 14.7799 53.0141 14.7469C53.4944 14.6523 53.814 14.804 54.2529 15.0001ZM47.5065 19.0112C47.3577 19.0558 47.3577 19.0558 47.2059 19.1013C46.8747 19.2008 46.544 19.302 46.2133 19.4031C45.9798 19.4737 45.7463 19.5441 45.5127 19.6144C44.8925 19.8014 44.2728 19.9898 43.6532 20.1784C43.0419 20.3643 42.4304 20.549 41.8188 20.7337C40.9782 20.9877 40.1377 21.2422 39.2973 21.4971C37.8095 21.9485 36.3208 22.3967 34.8315 22.8431C34.6779 22.8891 34.6779 22.8891 34.5212 22.9361C33.963 23.1033 33.4048 23.2705 32.8466 23.4376C33.1977 23.8313 33.5147 24.0222 34.0016 24.2202C34.209 24.3053 34.209 24.3053 34.4205 24.3922C34.5694 24.4518 34.7183 24.5114 34.8718 24.5728C35.0253 24.6349 35.1789 24.6971 35.3371 24.7611C35.6618 24.892 35.9867 25.0222 36.3119 25.1519C36.8094 25.3508 37.3054 25.5531 37.8015 25.7557C38.1171 25.8824 38.4329 26.009 38.7487 26.1353C38.897 26.1962 39.0453 26.257 39.1981 26.3197C39.3373 26.3745 39.4765 26.4293 39.6199 26.4858C39.7417 26.5347 39.8634 26.5836 39.9889 26.634C40.4423 26.7415 40.6868 26.7165 41.1279 26.5626C41.5297 26.2511 41.5297 26.2511 41.9194 25.842C41.9942 25.7673 42.069 25.6926 42.146 25.6156C42.3918 25.3694 42.6354 25.121 42.879 24.8725C43.0494 24.7009 43.2199 24.5295 43.3906 24.3582C43.8387 23.9077 44.2849 23.4554 44.7307 23.0027C45.1862 22.5407 45.6435 22.0806 46.1007 21.6202C46.9969 20.7173 47.8911 19.8124 48.7841 18.9063C48.3082 18.6683 48.0093 18.8588 47.5065 19.0112ZM50.5029 20.6251C49.4783 21.6243 48.4568 22.6264 47.4389 23.6324C46.9662 24.0994 46.4925 24.5653 46.0164 25.029C45.5571 25.4764 45.1005 25.9264 44.6457 26.3784C44.4717 26.5505 44.2967 26.7215 44.1207 26.8916C43.8745 27.1299 43.6318 27.3714 43.3898 27.614C43.2507 27.7507 43.1115 27.8874 42.9682 28.0282C42.643 28.4205 42.643 28.4205 42.7078 28.9111C42.8311 29.3233 42.9581 29.7225 43.1176 30.122C43.1729 30.2617 43.2282 30.4014 43.2851 30.5453C43.3448 30.6933 43.4046 30.8412 43.4661 30.9937C43.5276 31.1477 43.5891 31.3017 43.6524 31.4604C43.7821 31.7847 43.9123 32.1088 44.0429 32.4327C44.2431 32.9297 44.4414 33.4274 44.6395 33.9252C44.7659 34.2404 44.8923 34.5556 45.0189 34.8707C45.0783 35.0199 45.1377 35.1692 45.1989 35.3229C45.2547 35.4606 45.3105 35.5984 45.3679 35.7403C45.4167 35.8616 45.4655 35.983 45.5158 36.1081C45.652 36.4337 45.652 36.4337 45.9716 36.7188C46.5871 34.6901 47.2011 32.661 47.8132 30.6314C48.0975 29.689 48.3823 28.7468 48.6682 27.8049C48.9439 26.8965 49.2183 25.9877 49.4918 25.0786C49.5966 24.7313 49.7018 24.3841 49.8075 24.0371C49.9551 23.5522 50.101 23.0668 50.2466 22.5813C50.291 22.4369 50.3353 22.2925 50.3811 22.1437C50.4399 21.9455 50.4399 21.9455 50.5 21.7434C50.5347 21.6286 50.5694 21.5138 50.6051 21.3955C50.6898 21.0612 50.6898 21.0612 50.5029 20.6251ZM37.0654 28.1251C36.7634 29.0881 36.5896 30.0606 36.4208 31.0547C36.3924 31.2173 36.364 31.3798 36.3348 31.5473C36.181 32.4096 36.181 32.4096 36.1279 33.2813C37.3508 33.1909 38.5448 33.0217 39.7509 32.8028C39.9146 32.7737 40.0782 32.7446 40.2468 32.7146C40.6448 32.6437 41.0426 32.5722 41.4404 32.5001C41.2907 32.0996 41.141 31.6992 40.9911 31.2989C40.9491 31.1862 40.907 31.0735 40.8636 30.9574C40.7809 30.7366 40.6967 30.5163 40.6111 30.2966C40.5029 30.0001 40.5029 30.0001 40.404 29.5655C40.0404 28.9755 39.4171 28.845 38.7841 28.6231C38.654 28.5745 38.5239 28.5258 38.3898 28.4757C37.7438 28.2185 37.7438 28.2185 37.0654 28.1251Z" fill="#E57D90"/>
<path d="M7.25277 14.6667C7.38638 14.666 7.52 14.6654 7.65767 14.6647C7.87684 14.6648 7.87684 14.6648 8.10044 14.6649C8.2547 14.6644 8.40896 14.6638 8.5679 14.6633C9.07901 14.6618 9.59013 14.6615 10.1012 14.6613C10.456 14.6608 10.8108 14.6603 11.1656 14.6598C11.9098 14.6588 12.6541 14.6585 13.3983 14.6586C14.3523 14.6587 15.3063 14.6565 16.2603 14.6538C16.9932 14.6521 17.7261 14.6518 18.4591 14.6519C18.8108 14.6517 19.1625 14.651 19.5143 14.6498C20.0061 14.6482 20.498 14.6487 20.9898 14.6496C21.1353 14.6488 21.2808 14.6479 21.4307 14.647C22.2646 14.651 22.9449 14.6682 23.595 15.2506C23.8716 15.7984 23.848 16.3291 23.8409 16.9288C23.841 17.1177 23.841 17.1177 23.8411 17.3105C23.8407 17.5763 23.8392 17.8421 23.8366 18.1079C23.8329 18.5143 23.8334 18.9205 23.8345 19.3269C23.8336 19.5855 23.8325 19.844 23.8311 20.1026C23.8312 20.2239 23.8314 20.3452 23.8315 20.4701C23.817 21.5815 23.817 21.5815 23.4716 22.0313C23.0178 22.3046 22.6804 22.3832 22.1539 22.3846C21.9472 22.3862 21.9472 22.3862 21.7364 22.3879C21.5864 22.3875 21.4365 22.3872 21.282 22.3868C21.1232 22.3876 20.9643 22.3884 20.8006 22.3892C20.2751 22.3913 19.7497 22.3912 19.2242 22.3908C18.8591 22.3914 18.494 22.3921 18.129 22.3929C17.3636 22.394 16.5982 22.394 15.8329 22.3932C14.8517 22.3923 13.8706 22.3949 12.8895 22.3985C12.1355 22.4008 11.3815 22.401 10.6275 22.4005C10.2657 22.4006 9.90398 22.4014 9.54223 22.403C9.03651 22.4049 8.53089 22.4038 8.02517 22.402C7.80074 22.4038 7.80074 22.4038 7.57178 22.4056C6.81041 22.3996 6.27111 22.3834 5.65911 21.8751C5.40166 21.3602 5.47066 20.7873 5.46563 20.221C5.46437 20.0877 5.4631 19.9544 5.4618 19.817C5.45964 19.5346 5.45797 19.2522 5.45674 18.9698C5.45405 18.538 5.44719 18.1064 5.4403 17.6747C5.43871 17.4004 5.43738 17.1261 5.43633 16.8519C5.43359 16.7228 5.43086 16.5937 5.42804 16.4607C5.43142 15.5656 5.43142 15.5656 5.79022 15.0797C6.27934 14.738 6.67168 14.668 7.25277 14.6667ZM8.00286 17.1876C8.00286 18.0642 8.00286 18.9407 8.00286 19.8438C12.3857 19.8438 16.7685 19.8438 21.2841 19.8438C21.2841 18.9673 21.2841 18.0907 21.2841 17.1876C16.9013 17.1876 12.5185 17.1876 8.00286 17.1876Z" fill="#E57D90"/>
<path d="M8.46885 34.7451C8.69399 34.7443 8.91912 34.7432 9.14426 34.7417C9.75476 34.7388 10.3651 34.7408 10.9756 34.7439C11.6148 34.7465 12.2541 34.7451 12.8933 34.7443C13.9667 34.7436 15.04 34.7461 16.1134 34.7504C17.354 34.7554 18.5945 34.7554 19.835 34.7528C21.029 34.7503 22.2229 34.7513 23.4168 34.754C23.9247 34.7551 24.4325 34.7549 24.9404 34.7537C25.5386 34.7526 26.1367 34.7544 26.7349 34.7587C26.9542 34.7598 27.1736 34.7598 27.393 34.7587C27.6927 34.7573 27.9925 34.7602 28.2922 34.7633C28.4598 34.7637 28.6275 34.7642 28.8002 34.7646C29.3635 34.863 29.6277 35.0741 30.0341 35.4687C30.1324 35.7812 30.1324 35.7812 30.122 36.0937C30.1222 36.1968 30.1224 36.3 30.1226 36.4062C29.9935 36.8621 29.7746 37.0463 29.4091 37.3437C28.9732 37.4224 28.9732 37.4224 28.4613 37.4231C28.267 37.4248 28.0727 37.4266 27.8725 37.4284C27.6576 37.4272 27.4426 37.4259 27.2277 37.4246C27.0011 37.4254 26.7744 37.4265 26.5478 37.4279C25.9324 37.4308 25.3172 37.4296 24.7018 37.4277C24.0578 37.4261 23.4138 37.4275 22.7698 37.4285C21.6881 37.4297 20.6065 37.4282 19.5248 37.4252C18.2746 37.4218 17.0244 37.4229 15.7742 37.4263C14.7006 37.4292 13.6271 37.4296 12.5536 37.4279C11.9124 37.427 11.2714 37.4268 10.6302 37.4289C10.0273 37.4307 9.42448 37.4294 8.82156 37.4258C8.60041 37.425 8.37926 37.4252 8.15812 37.4266C7.856 37.4283 7.55386 37.4258 7.25175 37.4231C6.99825 37.4227 6.99825 37.4227 6.73963 37.4224C6.16889 37.3238 5.90657 37.1283 5.50284 36.7187C5.386 36.0761 5.4178 35.762 5.76302 35.2057C6.4729 34.5472 7.56438 34.7369 8.46885 34.7451Z" fill="#E57D90"/>
<path d="M8.46885 29.7451C8.69399 29.7443 8.91912 29.7432 9.14426 29.7417C9.75476 29.7388 10.3651 29.7408 10.9756 29.7439C11.6148 29.7465 12.2541 29.7451 12.8933 29.7443C13.9667 29.7436 15.04 29.7461 16.1134 29.7504C17.354 29.7554 18.5945 29.7554 19.835 29.7528C21.029 29.7503 22.2229 29.7513 23.4168 29.754C23.9247 29.7551 24.4325 29.7549 24.9404 29.7537C25.5386 29.7526 26.1367 29.7544 26.7349 29.7587C26.9542 29.7598 27.1736 29.7598 27.393 29.7587C27.6927 29.7573 27.9925 29.7602 28.2922 29.7633C28.4598 29.7637 28.6275 29.7642 28.8002 29.7646C29.3635 29.863 29.6276 30.0743 30.0341 30.4687C30.1379 30.7812 30.1379 30.7812 30.1317 31.0937C30.1338 31.1968 30.1358 31.3 30.1379 31.4062C29.9761 31.8935 29.6726 32.0622 29.2528 32.3437C28.8002 32.4224 28.8002 32.4224 28.2922 32.4231C28.099 32.4248 27.9058 32.4266 27.7067 32.4284C27.4938 32.4272 27.281 32.4259 27.0681 32.4246C26.843 32.4254 26.6178 32.4265 26.3927 32.4279C25.7822 32.4307 25.1718 32.4296 24.5613 32.4277C23.9221 32.4261 23.2829 32.4275 22.6437 32.4285C21.5703 32.4297 20.4969 32.4282 19.4235 32.4252C18.183 32.4218 16.9425 32.4229 15.7019 32.4263C14.6363 32.4292 13.5708 32.4296 12.5052 32.4279C11.869 32.427 11.2328 32.4268 10.5965 32.4289C9.99835 32.4307 9.40025 32.4294 8.80207 32.4258C8.58269 32.425 8.3633 32.4252 8.14392 32.4266C7.84421 32.4283 7.54448 32.4258 7.24477 32.4231C6.9933 32.4227 6.9933 32.4227 6.73675 32.4224C6.16796 32.3235 5.90551 32.1267 5.50284 31.7187C5.386 31.0761 5.4178 30.762 5.76302 30.2057C6.4729 29.5472 7.56438 29.7369 8.46885 29.7451Z" fill="#E57D90"/>
<path d="M6.90474 24.7632C7.06114 24.7612 7.21755 24.7593 7.3787 24.7572C7.54933 24.7582 7.71997 24.7592 7.89578 24.7603C8.16644 24.7583 8.16644 24.7583 8.44257 24.7562C9.03986 24.7527 9.63704 24.7537 10.2343 24.7551C10.5441 24.7545 10.8539 24.7539 11.1636 24.7531C12.1374 24.7504 13.1111 24.751 14.0848 24.7536C15.0892 24.7562 16.0935 24.7538 17.0979 24.7487C17.9606 24.7445 18.8232 24.7434 19.6859 24.7447C20.201 24.7455 20.7161 24.7448 21.2312 24.7419C21.8055 24.7392 22.3795 24.7415 22.9538 24.745C23.1244 24.7432 23.295 24.7414 23.4708 24.7395C24.6195 24.754 24.6195 24.754 25.1398 25.2105C25.3925 25.7168 25.4417 26.0039 25.3466 26.5624C25.0549 26.9222 24.8222 27.1371 24.4091 27.3436C24.1714 27.3591 23.9329 27.3647 23.6947 27.3656C23.5442 27.3665 23.3937 27.3674 23.2386 27.3683C23.073 27.3685 22.9073 27.3686 22.7366 27.3688C22.5625 27.3696 22.3885 27.3704 22.2092 27.3712C21.6313 27.3735 21.0533 27.3745 20.4754 27.3754C20.0749 27.3763 19.6743 27.3772 19.2738 27.3781C18.5406 27.3795 17.8073 27.3805 17.0741 27.381C15.9952 27.3817 14.9163 27.3844 13.8374 27.3889C12.9028 27.3927 11.9683 27.3939 11.0337 27.3942C10.6362 27.3947 10.2387 27.3959 9.84118 27.398C9.2853 27.4006 8.72949 27.4004 8.1736 27.3993C8.00888 27.4008 7.84416 27.4022 7.67445 27.4037C6.26647 27.3956 6.26647 27.3956 5.65914 26.8749C5.4176 26.3918 5.45702 26.0008 5.50289 25.4686C5.93186 24.9178 6.21215 24.7655 6.90474 24.7632Z" fill="#E57D90"/>
<path d="M52.8466 4.84382C53.2275 5.08796 53.2275 5.08796 53.4716 5.46882C53.5966 6.09633 53.5682 6.55778 53.2372 7.10944C52.6833 7.44182 52.2266 7.44603 51.5966 7.34382C51.2157 7.18757 51.2157 7.18757 50.9716 6.87507C50.831 6.45059 50.7762 6.07121 50.8153 5.62507C51.3912 4.69184 51.797 4.60857 52.8466 4.84382Z" fill="#E57D90"/>
<path d="M47.8466 4.84385C48.2972 5.24823 48.448 5.49936 48.5595 6.09385C48.4373 6.74546 48.2289 6.9624 47.6904 7.34385C47.2098 7.46184 46.951 7.42491 46.4404 7.34385C45.9266 6.91995 45.8297 6.66445 45.7372 6.00596C45.827 5.38914 45.9533 5.21628 46.4404 4.84385C46.9437 4.59216 47.3116 4.7147 47.8466 4.84385Z" fill="#E57D90"/>
<path d="M42.8466 4.84375C43.2989 5.11513 43.3174 5.32055 43.4521 5.83984C43.4738 6.46899 43.389 6.70127 43.0028 7.1875C42.5015 7.43815 41.9842 7.41791 41.4403 7.34375C41.0497 7.10937 41.0497 7.10937 40.8153 6.71875C40.707 6.11112 40.7261 5.63443 41.0204 5.08789C41.5921 4.55858 42.1334 4.69092 42.8466 4.84375Z" fill="#E57D90"/>
</g>
<defs>
<clipPath id="clip0_100_114">
<rect width="80" height="80" fill="white" transform="translate(0.502869)"/>
</clipPath>
</defs>
</svg>
