<svg width="81" height="80" viewBox="0 0 81 80" fill="none" xmlns="http://www.w3.org/2000/svg">
<g clip-path="url(#clip0_100_64)">
<path d="M7.61579 -0.0793626C7.91121 -0.0800833 8.20663 -0.0810763 8.50204 -0.0823171C9.31143 -0.0849215 10.1208 -0.0836387 10.9302 -0.0817007C11.804 -0.0802853 12.6778 -0.08247 13.5516 -0.0841882C15.2625 -0.0869665 16.9733 -0.0863674 18.6842 -0.0845553C20.0747 -0.0831435 21.4653 -0.0829525 22.8558 -0.0836326C23.0537 -0.0837284 23.2517 -0.0838242 23.4556 -0.0839229C23.8578 -0.0841227 24.2599 -0.0843253 24.6621 -0.0845307C28.3249 -0.0862619 31.9878 -0.084467 35.6507 -0.0811916C38.9929 -0.0782257 42.3351 -0.0784911 45.6773 -0.0814797C49.4342 -0.084828 53.1911 -0.0861411 56.948 -0.0842221C57.3486 -0.084023 57.7493 -0.0838265 58.1499 -0.0836326C58.4456 -0.083488 58.4456 -0.083488 58.7473 -0.0833405C60.1361 -0.0828009 61.5248 -0.0837114 62.9136 -0.0851824C64.6062 -0.0869357 66.2987 -0.08646 67.9913 -0.0831319C68.8548 -0.08149 69.7182 -0.0808451 70.5817 -0.0829126C71.3724 -0.0847772 72.1631 -0.0837478 72.9538 -0.0804267C73.2396 -0.0797295 73.5253 -0.0800815 73.8111 -0.081599C75.9636 -0.0921514 77.4601 0.12406 79.0655 1.66138C80.4664 3.16927 80.5495 4.64222 80.5457 6.62938C80.5464 6.86101 80.5472 7.09264 80.5482 7.32426C80.5504 7.95951 80.5507 8.59475 80.5506 9.23001C80.5508 9.91564 80.5529 10.6013 80.5547 11.2869C80.5583 12.7855 80.5595 14.2841 80.5603 15.7827C80.5608 16.7188 80.5618 17.6549 80.5629 18.591C80.566 21.184 80.5686 23.777 80.569 26.37C80.569 26.5358 80.5691 26.7017 80.5691 26.8726C80.5692 27.2088 80.5692 27.5451 80.5693 27.8813C80.5693 28.0482 80.5693 28.2151 80.5694 28.3871C80.5694 28.6378 80.5694 28.6378 80.5695 28.8935C80.57 31.601 80.5742 34.3086 80.5801 37.0161C80.586 39.7974 80.589 42.5787 80.5891 45.36C80.5892 46.921 80.5905 48.4819 80.595 50.0429C80.5989 51.3721 80.6 52.7013 80.5976 54.0306C80.5965 54.7084 80.5966 55.3861 80.6002 56.0638C80.6034 56.6853 80.603 57.3066 80.5998 57.928C80.5992 58.1519 80.6 58.3757 80.6022 58.5996C80.6198 60.4798 80.2578 62.0987 78.9208 63.4875C77.2697 64.9667 75.4129 65.0689 73.2857 65.0532C73.033 65.0531 72.7803 65.0532 72.5276 65.0534C71.8459 65.0536 71.1642 65.0508 70.4825 65.0475C69.7685 65.0446 69.0545 65.0443 68.3405 65.0438C66.9903 65.0423 65.6401 65.0385 64.2899 65.0338C62.752 65.0285 61.214 65.0259 59.6761 65.0236C56.5142 65.0187 53.3523 65.0105 50.1904 65C50.1928 65.1 50.1953 65.2001 50.1978 65.3032C50.2076 65.7587 50.2137 66.2143 50.2197 66.6699C50.2236 66.8273 50.2275 66.9847 50.2316 67.1469C50.2461 68.6155 50.2461 68.6155 49.7216 69.2188C49.2758 69.4417 48.9662 69.4235 48.4716 69.375C48.2138 69.1688 47.956 68.9625 47.6904 68.75C47.6904 67.5125 47.6904 66.275 47.6904 65C42.9466 65 38.2029 65 33.3154 65C33.3154 69.1766 33.3154 73.3531 33.3154 77.6562C38.0591 77.6562 42.8029 77.6562 47.6904 77.6562C47.6904 76.1609 47.6904 74.6656 47.6904 73.125C48.1591 72.5 48.1591 72.5 48.6962 72.3633C49.4664 72.3363 49.4664 72.3363 49.8779 72.6562C50.2322 73.1991 50.2267 73.6609 50.2209 74.2993C50.2199 74.4947 50.2189 74.6901 50.2178 74.8914C50.2152 75.0948 50.2126 75.2982 50.2099 75.5078C50.2078 75.8166 50.2078 75.8166 50.2056 76.1316C50.202 76.6398 50.1968 77.148 50.1904 77.6562C50.3386 77.653 50.4868 77.6497 50.6394 77.6463C51.1904 77.6357 51.7412 77.6278 52.2923 77.6219C52.5305 77.6188 52.7688 77.6145 53.007 77.6091C53.3499 77.6015 53.6926 77.598 54.0356 77.5952C54.2418 77.5919 54.448 77.5887 54.6604 77.5853C55.1904 77.6562 55.1904 77.6562 55.5702 77.9384C55.9282 78.4391 55.9011 78.7749 55.8154 79.375C55.5721 79.7167 55.5721 79.7167 55.1904 80C54.7734 80.0614 54.4209 80.0845 54.0042 80.0794C53.8842 80.0803 53.7641 80.0813 53.6404 80.0823C53.2379 80.0848 52.8354 80.0828 52.4328 80.0809C52.1443 80.0817 51.8558 80.0828 51.5674 80.0842C50.7835 80.087 49.9997 80.0859 49.2159 80.084C48.3962 80.0824 47.5766 80.0838 46.7569 80.0848C45.3803 80.086 44.0038 80.0845 42.6272 80.0815C41.0349 80.0781 39.4427 80.0792 37.8504 80.0826C36.4841 80.0855 35.1179 80.0859 33.7516 80.0842C32.9352 80.0833 32.1189 80.0831 31.3025 80.0852C30.535 80.087 29.7676 80.0857 29.0002 80.0821C28.7182 80.0813 28.4363 80.0815 28.1544 80.0829C27.77 80.0846 27.3859 80.0825 27.0015 80.0794C26.8895 80.0808 26.7774 80.0822 26.662 80.0836C26.1392 80.0753 25.8583 80.0318 25.4336 79.7167C25.0776 79.2165 25.1049 78.8797 25.1904 78.2812C25.3966 78.075 25.6029 77.8688 25.8154 77.6562C27.4654 77.6562 29.1154 77.6562 30.8154 77.6562C30.8154 73.4797 30.8154 69.3031 30.8154 65C28.9873 65.0073 27.1593 65.0145 25.2758 65.022C24.1166 65.0252 22.9573 65.0282 21.798 65.0305C19.9587 65.0342 18.1193 65.0386 16.28 65.0471C14.9403 65.0534 13.6005 65.0574 12.2608 65.0588C11.5519 65.0596 10.8431 65.0615 10.1343 65.0661C9.46582 65.0704 8.79744 65.0716 8.12898 65.0707C7.88486 65.0709 7.64074 65.0721 7.39663 65.0745C5.46082 65.0927 3.74052 64.8832 2.21674 63.5913C0.896149 62.2602 0.45155 60.8359 0.440178 58.998C0.441191 58.7815 0.442249 58.5651 0.443347 58.3487C0.442806 58.1166 0.442061 57.8845 0.441131 57.6524C0.439178 57.0166 0.440139 56.3808 0.441593 55.745C0.442655 55.0585 0.441016 54.3721 0.439727 53.6856C0.437644 52.3415 0.438093 50.9975 0.439452 49.6534C0.440511 48.5609 0.440654 47.4684 0.440144 46.3759C0.440072 46.2204 0.440001 46.0648 0.439927 45.9046C0.439777 45.5886 0.439625 45.2726 0.439471 44.9566C0.438134 41.994 0.439671 39.0315 0.44219 36.0689C0.444284 33.5276 0.44392 30.9863 0.441759 28.445C0.439249 25.4932 0.438263 22.5414 0.439702 19.5896C0.439851 19.2747 0.439999 18.9599 0.440144 18.645C0.440253 18.4126 0.440253 18.4126 0.440363 18.1755C0.440768 17.0846 0.440085 15.9937 0.438982 14.9027C0.437666 13.5729 0.438025 12.243 0.44052 10.9132C0.44175 10.2348 0.442236 9.55652 0.440684 8.87818C0.439284 8.2568 0.440061 7.63547 0.442549 7.0141C0.443071 6.78972 0.442809 6.56535 0.441669 6.34098C0.431961 4.27053 0.760559 2.92906 2.19293 1.41968C3.78746 -0.094319 5.53454 -0.0904147 7.61579 -0.0793626ZM3.58881 3.67188C3.15233 4.29542 2.96376 4.70887 2.96442 5.47695C2.9638 5.63717 2.96317 5.7974 2.96253 5.96248C2.96344 6.13813 2.96435 6.31379 2.96529 6.49476C2.96502 6.68116 2.96476 6.86755 2.96448 7.0596C2.96405 7.57818 2.96503 8.09672 2.9666 8.6153C2.96796 9.18265 2.96751 9.75 2.96728 10.3174C2.96711 11.4191 2.96856 12.5208 2.97056 13.6225C2.97281 14.8967 2.97306 16.1708 2.97331 17.445C2.97495 20.8097 2.97931 24.1744 2.98334 27.5391C2.98978 35.0543 2.99623 42.5695 3.00287 50.3125C27.7529 50.3125 52.5029 50.3125 78.0029 50.3125C78.019 42.8102 78.0351 35.3078 78.0517 27.5781C78.0588 25.2076 78.0659 22.837 78.0733 20.3946C78.0759 18.2732 78.0759 18.2732 78.0774 16.1518C78.0782 15.2055 78.081 14.2592 78.0854 13.3129C78.0903 12.2215 78.0926 11.1302 78.0915 10.0388C78.091 9.48053 78.0918 8.92231 78.096 8.36403C78.1005 7.76597 78.099 7.168 78.0968 6.56992C78.0991 6.39609 78.1014 6.22225 78.1037 6.04315C78.0934 4.97498 77.9211 4.26151 77.2216 3.4375C76.1509 2.4451 75.1178 2.31939 73.6923 2.32365C73.5755 2.32338 73.4587 2.32311 73.3384 2.32282C72.9468 2.3221 72.5552 2.32248 72.1635 2.32286C71.88 2.32257 71.5965 2.32221 71.313 2.32179C70.5337 2.32083 69.7544 2.32085 68.9751 2.32104C68.1347 2.32107 67.2943 2.32021 66.4539 2.31946C64.8074 2.31817 63.1609 2.31774 61.5144 2.31765C60.1763 2.31758 58.8382 2.31726 57.5001 2.31676C53.7075 2.31538 49.9149 2.31466 46.1223 2.31478C45.9178 2.31479 45.7133 2.31479 45.5026 2.3148C45.2979 2.31481 45.0931 2.31481 44.8822 2.31482C41.5629 2.31488 38.2437 2.31339 34.9244 2.31118C31.5174 2.30894 28.1104 2.30786 24.7034 2.30799C22.7901 2.30805 20.8769 2.30762 18.9636 2.30594C17.3348 2.30451 15.7061 2.30417 14.0773 2.30523C13.2461 2.30575 12.415 2.30575 11.5838 2.3044C10.823 2.30317 10.0622 2.30339 9.30136 2.30475C9.02608 2.305 8.75081 2.30471 8.47554 2.30384C8.10126 2.30274 7.72703 2.30356 7.35276 2.30486C7.24601 2.30409 7.13926 2.30331 7.02928 2.30251C5.66399 2.31253 4.526 2.63056 3.58881 3.67188ZM3.00287 52.8125C2.67314 57.261 2.67314 57.261 3.62787 61.4062C3.9635 61.7344 3.9635 61.7344 4.34076 61.9434C4.4602 62.0173 4.57964 62.0912 4.7027 62.1674C5.35455 62.5143 5.93033 62.5226 6.6494 62.5214C6.76766 62.5218 6.88592 62.5222 7.00776 62.5227C7.40724 62.5239 7.80671 62.524 8.2062 62.524C8.49422 62.5247 8.78225 62.5254 9.07028 62.5261C9.86431 62.528 10.6583 62.5289 11.4524 62.5296C12.3078 62.5305 13.1632 62.5323 14.0186 62.534C16.0858 62.5378 18.153 62.5401 20.2201 62.5421C20.8038 62.5427 21.3875 62.5433 21.9712 62.544C25.5945 62.5479 29.2177 62.5514 32.841 62.5533C33.6805 62.5538 34.5201 62.5542 35.3596 62.5547C35.4639 62.5548 35.5682 62.5548 35.6757 62.5549C39.0568 62.5568 42.4378 62.5616 45.8189 62.5681C49.3935 62.575 52.968 62.579 56.5426 62.5799C58.4912 62.5804 60.4397 62.5822 62.3883 62.5874C64.0477 62.5918 65.7071 62.5935 67.3666 62.5917C68.2133 62.5909 69.0599 62.5914 69.9066 62.5952C70.6821 62.5987 71.4574 62.5986 72.2329 62.5957C72.5131 62.5952 72.7933 62.5961 73.0736 62.5985C75.1907 62.6267 75.1907 62.6267 77.0654 61.7188C79.2636 59.3804 78.0029 55.7515 78.0029 52.8125C53.2529 52.8125 28.5029 52.8125 3.00287 52.8125Z" fill="#E57D90"/>
<path d="M38.4716 12.8125C38.5879 12.9194 38.7041 13.0264 38.8238 13.1366C39.2735 13.5688 39.6493 14.0086 40.0048 14.5214C40.1176 14.6793 40.2304 14.8373 40.3466 15C40.4498 15 40.5529 15 40.6591 15C40.8571 14.7732 41.044 14.5369 41.2255 14.2968C44.1242 10.6048 48.5067 8.24455 53.1508 7.66162C58.092 7.11072 62.9605 8.21702 66.9677 11.2341C67.6535 11.7831 68.3014 12.3661 68.9404 12.9687C69.0461 13.0644 69.1519 13.16 69.2608 13.2586C72.0786 15.907 74.0727 20.0657 74.4091 23.9062C74.4192 24.0111 74.4292 24.116 74.4395 24.2241C74.9471 29.8012 73.3099 34.6846 69.7667 38.9794C66.9548 42.322 62.3604 44.7292 58.0271 45.1335C52.7211 45.4906 47.7075 44.3704 43.5841 40.8646C41.3885 38.9065 41.3885 38.9065 40.6591 37.8125C40.068 38.0095 39.9319 38.2583 39.5556 38.75C36.7598 42.2346 32.4047 44.4927 27.998 45.083C22.8866 45.636 17.8388 44.528 13.7585 41.3085C9.6616 37.8775 7.00839 33.4725 6.51424 28.0896C6.17798 23.5379 7.24296 18.7509 10.1159 15.1043C10.5029 14.6875 10.5029 14.6875 11.0498 14.5214C11.6539 14.5322 11.9093 14.6279 12.3779 15C12.608 15.4601 12.5921 15.7347 12.5341 16.25C12.3078 16.7161 12.0208 17.1379 11.7334 17.5683C9.28072 21.4219 8.65678 25.6578 9.52022 30.1031C10.0897 32.5456 11.2196 34.8131 12.8466 36.7187C12.9687 36.8659 13.0908 37.0132 13.2165 37.1649C15.2887 39.5647 18.0822 41.2076 21.1279 42.0312C21.3065 42.081 21.4852 42.1307 21.6693 42.182C25.6809 43.1439 30.1157 42.4222 33.656 40.3271C35.3261 39.2962 38.0039 37.3521 38.7841 35.4687C38.735 34.7349 38.4799 34.1361 38.1884 33.4668C36.1474 28.5972 36.5557 23.222 38.515 18.4167C38.6508 18.1084 38.7942 17.8035 38.9404 17.5C36.0194 13.6768 32.4496 10.965 27.5679 10.3046C23.5274 9.82657 19.5865 10.6738 16.1962 12.9687C15.5838 13.325 15.2617 13.4017 14.5654 13.2812C14.1845 13.0371 14.1845 13.0371 13.9404 12.6562C13.8513 12.0438 13.8478 11.7072 14.1845 11.181C14.6539 10.6883 15.1421 10.3984 15.7373 10.0781C15.8485 10.0171 15.9598 9.95615 16.0744 9.89333C18.1447 8.77646 20.3547 7.97977 22.6904 7.6562C22.8251 7.63687 22.9599 7.61753 23.0987 7.59761C28.8419 6.94774 34.2793 8.93525 38.4716 12.8125ZM45.3466 13.75C45.2123 13.8607 45.0779 13.9715 44.9395 14.0856C41.8474 16.7415 39.8782 20.4759 39.4091 24.5312C39.1365 29.1161 40.1379 33.2018 43.1189 36.7907C45.5696 39.5468 48.4716 41.4338 52.0654 42.3437C52.2128 42.382 52.3603 42.4202 52.5122 42.4597C56.6883 43.3408 61.0662 42.3411 64.6215 40.0756C68.2954 37.6303 70.8793 33.8598 71.7529 29.5312C72.5166 25.3679 71.7822 20.9519 69.378 17.4176C66.6295 13.6435 62.9311 10.9562 58.2721 10.1959C53.6419 9.52442 48.9477 10.7169 45.3466 13.75Z" fill="#E57D90"/>
<path d="M46.5966 20C46.9505 20.2569 47.0528 20.3924 47.1245 20.8273C47.1248 20.9678 47.1251 21.1082 47.1255 21.253C47.1271 21.4126 47.1286 21.5722 47.1303 21.7366C47.1298 21.909 47.1293 22.0813 47.1288 22.2589C47.1305 22.4364 47.1322 22.6138 47.134 22.7967C47.1393 23.3651 47.1418 23.9335 47.1435 24.502C47.1458 25.2485 47.151 25.9949 47.1581 26.7414C47.1577 26.9128 47.1572 27.0842 47.1567 27.2608C47.1652 28.1278 47.1789 28.794 47.6904 29.5313C48.4003 30.0708 48.9525 30.2609 49.8449 30.2167C50.5711 30.0897 51.1071 29.7764 51.5452 29.1696C51.7717 28.712 51.8118 28.4322 51.813 27.9254C51.8146 27.7648 51.8161 27.6042 51.8178 27.4388C51.8173 27.267 51.8168 27.0953 51.8163 26.9184C51.818 26.7406 51.8197 26.5629 51.8215 26.3797C51.8286 25.62 51.8304 24.8603 51.8327 24.1006C51.8352 23.5457 51.8403 22.9908 51.8456 22.4359C51.8452 22.2639 51.8447 22.0918 51.8442 21.9146C51.8458 21.7545 51.8474 21.5944 51.849 21.4294C51.8493 21.2888 51.8496 21.1482 51.85 21.0034C51.9218 20.5436 52.0544 20.3316 52.3779 20C52.9136 19.8636 53.2986 19.7923 53.8329 19.9512C54.1576 20.2037 54.254 20.4008 54.4091 20.7813C54.4509 21.1593 54.4509 21.1593 54.4545 21.5851C54.4565 21.7453 54.4585 21.9056 54.4605 22.0706C54.4609 22.2431 54.4612 22.4157 54.4616 22.5934C54.4626 22.7723 54.4637 22.9511 54.4648 23.1354C54.4663 23.5143 54.4671 23.8932 54.467 24.2721C54.4677 24.8476 54.4734 25.4228 54.4793 25.9983C54.4802 26.3672 54.4808 26.7362 54.4811 27.1051C54.4834 27.2754 54.4856 27.4457 54.4879 27.6212C54.4798 29.0088 54.2438 30.3223 53.2958 31.3867C52.0225 32.5333 50.5901 32.8899 48.919 32.8546C47.4183 32.7499 46.3372 32.0494 45.3466 30.9375C44.5114 29.7054 44.5381 28.3844 44.5281 26.9428C44.5269 26.7691 44.5256 26.5954 44.5243 26.4164C44.5221 26.0502 44.5205 25.6839 44.5192 25.3176C44.5174 24.9428 44.5142 24.5681 44.5096 24.1933C44.503 23.6515 44.5004 23.1097 44.4988 22.5678C44.4961 22.4004 44.4934 22.2331 44.4905 22.0607C44.4939 20.8997 44.4939 20.8997 44.8625 20.2888C45.4675 19.756 45.8175 19.836 46.5966 20Z" fill="#E57D90"/>
<path d="M19.5654 19.9999C19.9738 20.3452 20.1669 20.6276 20.2483 21.1605C20.2727 21.6437 20.2768 22.1235 20.2746 22.6074C20.2764 22.7847 20.2783 22.9621 20.2802 23.1449C20.2857 23.7112 20.2871 24.2774 20.288 24.8437C20.2906 25.41 20.294 25.9762 20.2992 26.5425C20.3023 26.8946 20.3037 27.2468 20.3034 27.5989C20.3045 27.759 20.3056 27.9191 20.3067 28.084C20.3069 28.2243 20.3071 28.3645 20.3073 28.509C20.3516 28.9564 20.456 29.2869 20.6591 29.6874C21.0408 29.8922 21.0408 29.8922 21.4404 29.9999C21.5435 30.0515 21.6466 30.1031 21.7529 30.1562C22.6409 30.2485 23.3384 30.1988 24.0966 29.6874C24.4954 29.336 24.6985 29.0571 24.7798 28.5264C24.8039 28.0415 24.8081 27.56 24.8058 27.0745C24.8077 26.8968 24.8095 26.719 24.8114 26.5359C24.8169 25.9685 24.8184 25.4013 24.8193 24.8339C24.8218 24.266 24.8253 23.6982 24.8305 23.1303C24.8335 22.7771 24.835 22.4239 24.8347 22.0707C24.8357 21.9106 24.8368 21.7505 24.838 21.5856C24.8382 21.445 24.8383 21.3044 24.8386 21.1596C24.8808 20.7529 24.9762 20.5022 25.1904 20.1562C25.6085 19.8309 25.8337 19.8443 26.372 19.8632C26.9091 19.9999 26.9091 19.9999 27.1731 20.2677C27.4223 20.7025 27.4382 20.9773 27.441 21.4768C27.443 21.6474 27.445 21.818 27.447 21.9938C27.4465 22.1775 27.4461 22.3613 27.4456 22.5506C27.4464 22.7406 27.4472 22.9306 27.4481 23.1263C27.4491 23.5286 27.4489 23.9309 27.4476 24.3332C27.4462 24.9461 27.4507 25.5587 27.4557 26.1715C27.4559 26.5628 27.4558 26.9542 27.4554 27.3455C27.458 27.6188 27.458 27.6188 27.4607 27.8976C27.4496 29.2111 27.2455 30.2127 26.372 31.2206C26.1738 31.3898 26.1738 31.3898 25.9716 31.5624C25.8588 31.6688 25.746 31.7751 25.6298 31.8847C24.2069 32.865 22.7307 33.0314 21.0375 32.7441C19.704 32.3711 18.6753 31.4757 17.9833 30.296C17.7094 29.7029 17.6697 29.16 17.6652 28.5107C17.6637 28.3376 17.6622 28.1645 17.6606 27.9861C17.66 27.7999 17.6593 27.6137 17.6586 27.4218C17.6577 27.23 17.6568 27.0381 17.6559 26.8405C17.6544 26.4349 17.6534 26.0293 17.6528 25.6237C17.6513 25.0024 17.6464 24.3811 17.6415 23.7597C17.6405 23.3658 17.6397 22.9719 17.6391 22.5781C17.6372 22.3919 17.6352 22.2056 17.6332 22.0138C17.6337 21.8407 17.6342 21.6676 17.6347 21.4892C17.6341 21.337 17.6335 21.1849 17.6329 21.0281C17.7006 20.5528 17.8269 20.3425 18.1591 19.9999C18.7227 19.8121 18.9963 19.8374 19.5654 19.9999Z" fill="#E57D90"/>
<path d="M58.7841 20C59.4718 20.6005 59.9526 21.3068 60.454 22.0605C60.6041 22.2843 60.7544 22.5079 60.9051 22.7313C60.9705 22.8295 61.0359 22.9276 61.1032 23.0287C61.2904 23.3045 61.2904 23.3045 61.5966 23.5938C61.6549 23.5126 61.7131 23.4315 61.7731 23.348C62.0396 22.9773 62.3064 22.6068 62.5732 22.2363C62.7106 22.0449 62.7106 22.0449 62.8509 21.8497C63.1083 21.4924 63.3676 21.1365 63.6278 20.7812C63.7416 20.6258 63.8554 20.4703 63.9727 20.3101C64.2528 20 64.2528 20 64.79 19.834C65.3466 19.8438 65.3466 19.8438 65.7958 20.0879C66.2148 20.5685 66.3083 20.7659 66.2841 21.4062C65.8504 22.5927 64.9279 23.6286 64.1784 24.632C64.0765 24.7699 64.0765 24.7699 63.9725 24.9107C63.7841 25.1562 63.7841 25.1562 63.4777 25.4901C63.4241 25.5862 63.3705 25.6823 63.3153 25.7812C63.491 26.3235 63.7408 26.7668 64.0642 27.2333C64.1494 27.3568 64.2346 27.4803 64.3223 27.6076C64.4122 27.7365 64.502 27.8653 64.5946 27.998C64.6858 28.1306 64.777 28.2632 64.8709 28.3998C65.2519 28.9524 65.6338 29.5031 66.0363 30.0403C66.1342 30.172 66.2321 30.3037 66.3329 30.4395C66.4161 30.5468 66.4993 30.6542 66.585 30.7648C66.8114 31.2086 66.7969 31.5396 66.7528 32.0312C66.5185 32.4805 66.5185 32.4805 66.1278 32.8125C65.3659 32.96 65.3659 32.96 64.8778 32.8125C63.9049 31.9866 63.2249 30.709 62.5121 29.6649C62.4187 29.5294 62.3252 29.3938 62.2289 29.2542C62.1449 29.131 62.0608 29.0079 61.9742 28.881C61.7714 28.5747 61.7714 28.5747 61.4403 28.4375C61.3308 28.598 61.2212 28.7586 61.1083 28.924C58.5992 32.5924 58.5992 32.5924 58.1591 32.8125C57.5655 32.8675 57.1992 32.8948 56.6845 32.5781C56.3456 32.036 56.3323 31.5527 56.4403 30.9375C56.6648 30.4704 56.9638 30.0768 57.2802 29.668C57.3642 29.5545 57.4483 29.441 57.5349 29.3241C57.7079 29.0904 57.8821 28.8575 58.0573 28.6254C58.4528 28.0979 58.8327 27.5595 59.2138 27.0215C59.3431 26.8405 59.4724 26.6597 59.602 26.4789C59.7385 26.2882 59.7385 26.2882 59.8778 26.0938C59.3766 25.2767 58.8652 24.4776 58.294 23.7079C58.209 23.5923 58.1241 23.4766 58.0366 23.3575C57.8667 23.1276 57.6947 22.8991 57.5205 22.6725C57.0063 21.9726 56.7856 21.5253 56.9091 20.625C57.3624 19.8048 57.9212 19.7584 58.7841 20Z" fill="#E57D90"/>
<path d="M32.3779 19.9999C32.6893 20.2469 32.8256 20.4266 33.0029 20.7812C33.0205 21.1328 33.0278 21.485 33.0306 21.837C33.0316 21.9455 33.0326 22.054 33.0337 22.1658C33.0367 22.5256 33.0386 22.8854 33.0401 23.2452C33.0408 23.368 33.0414 23.4909 33.0421 23.6175C33.0453 24.2678 33.0476 24.9181 33.049 25.5684C33.0507 26.2399 33.0561 26.9113 33.0623 27.5828C33.0664 28.0992 33.0677 28.6157 33.0683 29.1322C33.069 29.3797 33.0709 29.6272 33.0738 29.8747C33.0776 30.2214 33.0774 30.568 33.0763 30.9148C33.0777 31.2105 33.0777 31.2105 33.0791 31.5123C32.9895 32.1225 32.8102 32.3808 32.3779 32.8124C32.0654 32.9107 32.0654 32.9107 31.7529 32.9003C31.6498 32.9005 31.5466 32.9007 31.4404 32.9009C30.978 32.77 30.8001 32.5637 30.5029 32.1874C30.4246 31.6775 30.4246 31.6775 30.4245 31.065C30.4232 30.8972 30.4232 30.8972 30.4219 30.726C30.42 30.357 30.4226 29.9881 30.4254 29.6191C30.4254 29.3622 30.4251 29.1054 30.4247 28.8486C30.4245 28.3105 30.4264 27.7726 30.43 27.2346C30.4344 26.5452 30.434 25.856 30.432 25.1666C30.4309 24.6363 30.4321 24.106 30.4341 23.5758C30.4348 23.3216 30.4348 23.0674 30.4342 22.8133C30.4338 22.4579 30.4364 22.1027 30.4398 21.7474C30.4406 21.5453 30.4415 21.3431 30.4423 21.1349C30.5065 20.5944 30.5848 20.3754 30.9716 19.9999C31.5263 19.8151 31.8153 19.8593 32.3779 19.9999Z" fill="#E57D90"/>
<path d="M38.9697 56.3025C39.1525 56.3014 39.1525 56.3014 39.339 56.3003C39.5959 56.2997 39.8528 56.3012 40.1096 56.3044C40.5018 56.3086 40.8932 56.3045 41.2853 56.2995C41.5356 56.3 41.7858 56.301 42.0361 56.3025C42.1526 56.3009 42.2692 56.2994 42.3893 56.2977C43.0083 56.3116 43.2889 56.3853 43.7798 56.7741C44.0966 57.1875 44.0966 57.1875 44.1943 57.6563C44.0608 58.2971 43.8261 58.5018 43.3154 58.9063C42.8577 58.9844 42.4926 59.0162 42.0361 59.01C41.8532 59.0112 41.8532 59.0112 41.6667 59.0123C41.4098 59.0128 41.1529 59.0114 40.8961 59.0081C40.504 59.0039 40.1125 59.0081 39.7204 59.0131C39.4702 59.0126 39.2199 59.0116 38.9697 59.01C38.8531 59.0116 38.7366 59.0132 38.6165 59.0148C37.9975 59.001 37.7168 58.9272 37.2259 58.5385C36.9091 58.125 36.9091 58.125 36.8115 57.6563C37.0549 56.4878 37.9054 56.2881 38.9697 56.3025Z" fill="#E57D90"/>
</g>
<defs>
<clipPath id="clip0_100_64">
<rect width="80" height="80" fill="white" transform="translate(0.502869)"/>
</clipPath>
</defs>
</svg>
