<svg width="81" height="81" viewBox="0 0 81 81" fill="none" xmlns="http://www.w3.org/2000/svg">
<path d="M9.42167 8.70288C9.65293 8.70227 9.88419 8.70139 10.1154 8.70026C10.7453 8.69797 11.3752 8.69954 12.0051 8.70178C12.6865 8.70353 13.368 8.70165 14.0494 8.70024C15.3821 8.69807 16.7147 8.69924 18.0474 8.7016C19.6007 8.70424 21.154 8.70373 22.7073 8.70315C25.4793 8.70223 28.2513 8.70444 31.0233 8.70829C33.7108 8.71203 36.3982 8.71314 39.0857 8.7115C42.0154 8.70972 44.9451 8.70942 47.8747 8.71167C48.1873 8.71191 48.4999 8.71215 48.8125 8.71238C49.0431 8.71256 49.0431 8.71256 49.2785 8.71274C50.3602 8.71348 51.442 8.71319 52.5238 8.71253C53.8426 8.71176 55.1613 8.7127 56.48 8.71579C57.1524 8.71733 57.8248 8.71814 58.4971 8.7169C59.1134 8.7158 59.7296 8.71688 60.3459 8.71966C60.568 8.72028 60.7901 8.72014 61.0123 8.71911C62.2748 8.71375 63.5492 8.72267 64.7216 9.24994C65.085 9.79505 65.0995 10.0151 65.0341 10.6562C64.8779 11.0273 64.8779 11.0273 64.5654 11.2812C64.0209 11.3244 63.5656 11.3535 63.0414 11.202C62.6057 11.1064 62.2027 11.1049 61.7564 11.1044C61.564 11.1038 61.3716 11.1032 61.1734 11.1026C60.9595 11.1027 60.7456 11.1028 60.5318 11.103C60.3048 11.1026 60.0779 11.1021 59.851 11.1016C59.2265 11.1003 58.6021 11.1001 57.9777 11.0999C57.3045 11.0996 56.6313 11.0985 55.9582 11.0974C54.4857 11.0953 53.0133 11.0944 51.5408 11.0937C50.6214 11.0932 49.7019 11.0926 48.7825 11.0919C46.2368 11.09 43.6912 11.0884 41.1455 11.0878C40.9826 11.0878 40.8196 11.0878 40.6517 11.0877C40.4884 11.0877 40.3251 11.0877 40.1568 11.0876C39.8258 11.0875 39.4948 11.0875 39.1638 11.0874C38.9175 11.0874 38.9175 11.0874 38.6662 11.0873C36.0064 11.0867 33.3467 11.084 30.6869 11.0803C27.9561 11.0766 25.2253 11.0747 22.4946 11.0745C20.9613 11.0743 19.4281 11.0734 17.8949 11.0706C16.5892 11.0682 15.2835 11.0674 13.9777 11.0687C13.3117 11.0693 12.6457 11.0692 11.9797 11.067C11.3694 11.065 10.7591 11.0652 10.1488 11.0671C9.92858 11.0674 9.70839 11.0669 9.48821 11.0655C8.04318 11.0571 6.43236 11.0553 5.28802 12.0722C4.3619 12.9945 4.02941 14.126 4.01185 15.4128C4.01306 15.5511 4.01428 15.6894 4.01553 15.8318C4.01435 15.9827 4.01318 16.1337 4.01198 16.2891C4.00882 16.7921 4.01008 17.295 4.01132 17.798C4.00995 18.1658 4.0083 18.5337 4.0064 18.9015C4.00208 19.8839 4.00148 20.8663 4.00166 21.8488C4.00126 22.7716 3.99749 23.6945 3.994 24.6173C3.98577 27.3139 3.98293 30.0104 3.97943 32.707C3.96654 38.7333 3.95365 44.7597 3.94037 50.9687C24.5138 50.9687 45.0872 50.9687 66.2841 50.9687C66.2841 44.8328 66.2841 38.6968 66.2841 32.3749C66.5419 32.1171 66.7997 31.8593 67.0654 31.5937C67.5628 31.5937 67.8542 31.6447 68.2615 31.9331C68.5698 32.3522 68.5311 32.6781 68.5322 33.1948C68.5345 33.5017 68.5345 33.5017 68.5369 33.8147C68.5362 34.042 68.5355 34.2693 68.5348 34.4965C68.5356 34.7355 68.5367 34.9745 68.538 35.2134C68.5408 35.8634 68.5406 36.5133 68.5397 37.1632C68.5392 37.7063 68.5402 38.2495 68.5411 38.7926C68.5433 40.0753 68.5431 41.3579 68.5413 42.6405C68.5395 43.9611 68.5417 45.2817 68.5459 46.6022C68.5494 47.7374 68.5504 48.8725 68.5495 50.0076C68.549 50.6849 68.5493 51.3622 68.552 52.0395C68.5545 52.6777 68.5538 53.3158 68.5509 53.954C68.5503 54.187 68.5508 54.4202 68.5524 54.6532C68.5659 56.7174 68.2117 58.3468 66.7529 59.8749C65.2394 61.3197 63.6294 61.6899 61.5825 61.6646C61.3856 61.6647 61.1888 61.6648 60.986 61.6649C60.4518 61.6651 59.9176 61.6614 59.3835 61.6571C58.8231 61.6531 58.2628 61.6528 57.7025 61.6521C56.6439 61.6501 55.5854 61.645 54.5268 61.6387C53.3207 61.6317 52.1145 61.6283 50.9083 61.6251C48.4294 61.6186 45.9505 61.6077 43.4716 61.5937C43.5355 61.7403 43.5355 61.7403 43.6007 61.8899C43.7926 62.3313 43.9837 62.773 44.1747 63.2148C44.2418 63.3687 44.3089 63.5225 44.378 63.6811C44.4732 63.9016 44.4732 63.9016 44.5703 64.1266C44.6292 64.2625 44.6881 64.3983 44.7488 64.5383C44.8779 64.8749 44.8779 64.8749 44.8779 65.1874C45.0172 65.185 45.1566 65.1825 45.3002 65.18C45.8235 65.172 46.3467 65.1661 46.8701 65.1617C47.0954 65.1594 47.3208 65.1562 47.5461 65.1521C49.3147 65.1208 50.7746 65.169 52.1179 66.4454C52.7699 67.2091 52.9345 68.0717 52.8887 69.0589C52.7449 70.245 52.255 70.8581 51.3696 71.6462C50.525 72.198 49.6183 72.2647 48.6336 72.2594C48.513 72.26 48.3923 72.2606 48.268 72.2612C47.8662 72.2628 47.4645 72.2622 47.0627 72.2616C46.7736 72.2623 46.4845 72.2631 46.1954 72.264C45.4119 72.2661 44.6284 72.2662 43.8449 72.2658C43.1903 72.2656 42.5356 72.2664 41.8809 72.2672C40.3362 72.2689 38.7916 72.269 37.2469 72.268C35.6545 72.2671 34.0622 72.269 32.4698 72.2723C31.1014 72.2751 29.733 72.276 28.3646 72.2755C27.5479 72.2752 26.7312 72.2756 25.9144 72.2778C25.1463 72.2798 24.3783 72.2795 23.6102 72.2774C23.3287 72.2771 23.0473 72.2775 22.7659 72.2788C22.3808 72.2804 21.9958 72.2791 21.6107 72.2772C21.5002 72.2783 21.3897 72.2795 21.2758 72.2807C20.011 72.267 19.0274 71.8185 18.1121 70.9608C17.4516 70.203 17.2901 69.334 17.3358 68.3472C17.4787 67.1681 17.9659 66.5503 18.8397 65.7599C20.0867 64.9752 21.5866 65.1509 23.0029 65.1679C23.2305 65.1695 23.4582 65.1709 23.6859 65.1722C24.2395 65.1756 24.793 65.181 25.3466 65.1874C25.4046 65.0005 25.4626 64.8136 25.5224 64.621C25.7468 63.9431 26.0181 63.2895 26.3024 62.6349C26.3675 62.4841 26.3675 62.4841 26.4339 62.3303C26.54 62.0846 26.6464 61.8391 26.7529 61.5937C26.6506 61.5943 26.5483 61.5948 26.4429 61.5954C23.9479 61.6093 21.4528 61.6196 18.9578 61.6261C17.7512 61.6293 16.5446 61.6337 15.338 61.6408C14.2856 61.6471 13.2334 61.6511 12.181 61.6525C11.6244 61.6533 11.0678 61.6552 10.5112 61.6598C9.88811 61.6649 9.26512 61.6649 8.64202 61.6646C8.45972 61.6669 8.27743 61.6691 8.08961 61.6715C6.2591 61.6623 4.80426 61.1471 3.47162 59.8749C2.09995 58.4381 1.65688 56.8714 1.67245 54.9187C1.67137 54.7424 1.67028 54.5662 1.66916 54.3846C1.66632 53.7983 1.66791 53.2121 1.66952 52.6258C1.66841 52.2037 1.66707 51.7817 1.66544 51.3596C1.66207 50.3347 1.66207 49.3099 1.66335 48.285C1.66433 47.4515 1.66415 46.618 1.66315 45.7845C1.66301 45.6656 1.66287 45.5467 1.66272 45.4242C1.66243 45.1826 1.66214 44.941 1.66185 44.6993C1.65926 42.4369 1.66062 40.1744 1.66325 37.9119C1.66555 35.845 1.66326 33.7781 1.65876 31.7112C1.65416 29.5853 1.65245 27.4594 1.65394 25.3335C1.6541 25.0928 1.65426 24.852 1.65441 24.6113C1.65448 24.4928 1.65456 24.3744 1.65463 24.2524C1.65497 23.4207 1.65345 22.5889 1.65116 21.7572C1.64842 20.7425 1.64845 19.7279 1.652 18.7131C1.65373 18.1961 1.65382 17.6792 1.65133 17.1621C1.64883 16.6 1.65118 16.0381 1.65471 15.476C1.65286 15.3149 1.65101 15.1537 1.64911 14.9877C1.67022 13.325 2.29657 11.6983 3.47162 10.4999C5.20088 8.96876 7.18354 8.68634 9.42167 8.70288ZM3.94037 53.1562C3.80275 56.1092 3.80275 56.1092 5.19037 58.4687C6.10022 59.161 6.91277 59.4449 8.05283 59.4464C8.24923 59.4474 8.44563 59.4484 8.64797 59.4494C8.86471 59.449 9.08144 59.4485 9.29818 59.448C9.52936 59.4486 9.76054 59.4493 9.99173 59.4501C10.6265 59.452 11.2612 59.452 11.8959 59.4516C12.5807 59.4516 13.2654 59.4533 13.9502 59.4548C15.2916 59.4574 16.633 59.4582 17.9743 59.4584C19.0647 59.4585 20.155 59.4592 21.2454 59.4602C24.3368 59.4629 27.4282 59.4644 30.5197 59.4641C30.6863 59.4641 30.853 59.4641 31.0247 59.4641C31.1915 59.4641 31.3584 59.4641 31.5303 59.4641C34.2346 59.4639 36.9389 59.4669 39.6433 59.4713C42.4201 59.4758 45.197 59.478 47.9739 59.4777C49.5328 59.4776 51.0918 59.4785 52.6508 59.4818C53.9781 59.4847 55.3053 59.4853 56.6326 59.4832C57.3097 59.4822 57.9868 59.4822 58.6638 59.4849C59.2841 59.4874 59.9042 59.4869 60.5245 59.4842C60.7484 59.4837 60.9724 59.4843 61.1964 59.486C62.8162 59.4978 64.1438 59.3247 65.3466 58.1562C66.5829 56.5314 66.2841 55.3605 66.2841 53.1562C45.7107 53.1562 25.1372 53.1562 3.94037 53.1562ZM29.2529 61.5937C28.3086 63.5147 28.3086 63.5147 27.8466 65.1874C32.6419 65.1874 37.4372 65.1874 42.3779 65.1874C41.9159 63.5147 41.9159 63.5147 40.9716 61.5937C37.1044 61.5937 33.2372 61.5937 29.2529 61.5937ZM19.7216 68.1562C19.5276 68.6606 19.5313 68.8561 19.7411 69.3574C20.0906 69.7884 20.2877 69.8699 20.8154 70.0312C21.2123 70.0604 21.5919 70.0741 21.9885 70.0719C22.1053 70.0725 22.2221 70.0731 22.3424 70.0737C22.7329 70.0753 23.1234 70.0747 23.514 70.0741C23.7943 70.0748 24.0746 70.0756 24.3549 70.0765C25.1158 70.0786 25.8767 70.0787 26.6376 70.0783C27.2729 70.0781 27.9081 70.0789 28.5434 70.0797C30.0421 70.0814 31.5407 70.0815 33.0394 70.0805C34.5854 70.0796 36.1314 70.0815 37.6775 70.0848C39.005 70.0876 40.3325 70.0885 41.66 70.088C42.4528 70.0877 43.2456 70.0881 44.0384 70.0903C44.784 70.0923 45.5294 70.092 46.275 70.0899C46.5484 70.0896 46.8219 70.09 47.0954 70.0913C47.469 70.0929 47.8425 70.0916 48.2161 70.0897C48.3241 70.0908 48.4321 70.092 48.5434 70.0932C49.2552 70.0852 49.7402 69.9324 50.3466 69.5624C50.6314 69.191 50.6629 69.0136 50.6396 68.5468C50.4656 68.0496 50.2957 67.8547 49.8779 67.5312C49.4591 67.4698 49.1043 67.4466 48.6858 67.4518C48.5048 67.4504 48.5048 67.4504 48.3201 67.4489C47.9153 67.4464 47.5107 67.4484 47.106 67.4503C46.8159 67.4495 46.5259 67.4484 46.2359 67.447C45.4479 67.4441 44.6599 67.4453 43.8719 67.4472C43.0478 67.4488 42.2238 67.4473 41.3997 67.4464C40.0158 67.4452 38.6319 67.4467 37.2479 67.4497C35.6471 67.4531 34.0464 67.452 32.4455 67.4486C31.072 67.4457 29.6984 67.4453 28.3249 67.447C27.5041 67.4479 26.6834 67.4481 25.8627 67.446C25.0911 67.4442 24.3196 67.4455 23.548 67.4491C23.2646 67.4499 22.9811 67.4497 22.6977 67.4483C22.3113 67.4466 21.9251 67.4487 21.5387 67.4518C21.3697 67.4497 21.3697 67.4497 21.1973 67.4476C20.4827 67.4588 20.1517 67.5796 19.7216 68.1562Z" fill="#E57D90"/>
<path d="M76.3549 9.80911C77.8852 10.934 78.8005 12.2475 79.2529 14.0938C79.4178 15.9411 79.2701 17.6478 78.1494 19.1914C77.0846 20.4457 75.7995 21.468 74.5045 22.4715C73.7651 23.0448 73.0402 23.634 72.3193 24.2305C71.4369 24.9603 70.5523 25.687 69.663 26.4082C68.9784 26.9636 68.2941 27.5194 67.6122 28.0782C66.6033 28.9046 65.5905 29.7264 64.578 30.5486C64.1564 30.8909 63.7349 31.2334 63.3134 31.5758C63.1066 31.7439 62.8998 31.9119 62.693 32.0798C62.1581 32.5143 61.6235 32.9491 61.0894 33.3846C60.9805 33.4731 60.8715 33.5617 60.7593 33.6529C60.5448 33.828 60.3311 34.004 60.1183 34.1809C59.687 34.5373 59.2769 34.8608 58.7945 35.1466C58.2915 35.4452 57.925 35.6692 57.7704 36.26C57.6721 36.8662 57.6309 37.4737 57.5915 38.0861C57.4638 39.9729 56.4368 41.6788 55.083 42.961C51.7515 45.763 47.3626 46.2622 43.1591 46.3106C43.0487 46.3126 42.9383 46.3147 42.8246 46.3168C42.1482 46.3178 41.591 46.2462 40.9716 45.9688C40.6591 45.5 40.6591 45.5 40.6811 44.9965C40.8287 44.3476 41.084 43.8213 41.4013 43.2442C42.4028 41.3224 42.9 39.3149 43.335 37.2013C43.8669 34.6987 45.1059 32.48 47.2216 30.9688C48.4116 30.3105 49.4019 30.004 50.7568 30.0117C50.8631 30.0111 50.9695 30.0105 51.079 30.0099C51.8695 30.0115 51.8695 30.0115 52.2216 30.1875C52.2569 30.1039 52.2921 30.0204 52.3284 29.9342C52.6008 29.4421 52.9579 29.0375 53.3251 28.6153C53.4813 28.4333 53.6373 28.2512 53.7933 28.069C53.871 27.9784 53.9487 27.8878 54.0288 27.7944C54.5834 27.1431 55.1196 26.4763 55.6591 25.8125C56.481 24.8014 57.3125 23.7998 58.1566 22.8072C58.686 22.1829 59.1987 21.5469 59.707 20.9053C60.1671 20.3353 60.6426 19.779 61.1175 19.2213C61.6505 18.5938 62.1664 17.9546 62.6776 17.3091C63.0546 16.8423 63.4432 16.3859 63.833 15.9297C64.4275 15.2334 65.0007 14.5245 65.5615 13.8008C68.4548 10.0992 68.4548 10.0992 70.0341 9.40628C70.1364 9.35431 70.2388 9.30235 70.3442 9.24881C72.1856 8.45657 74.7062 8.74849 76.3549 9.80911ZM69.2529 12.8438C68.8972 13.2529 68.5565 13.6704 68.2195 14.095C67.8154 14.6016 67.3982 15.0951 66.9775 15.5879C66.3729 16.2986 65.7845 17.0196 65.205 17.751C64.7449 18.321 64.2694 18.8773 63.7945 19.435C63.3657 19.9398 62.9455 20.4496 62.5341 20.9688C62.0512 21.5784 61.5539 22.1736 61.0497 22.7657C60.3295 23.6118 59.6295 24.472 58.9404 25.3438C58.7322 25.6043 58.5239 25.8647 58.3154 26.125C58.6939 27.0054 59.4276 27.6137 60.0927 28.2832C60.2277 28.4233 60.3626 28.5634 60.5017 28.7077C60.6322 28.8394 60.7627 28.971 60.8972 29.1066C61.0163 29.2278 61.1354 29.349 61.2581 29.4739C61.5717 29.7551 61.5717 29.7551 61.9261 29.6996C62.3951 29.4821 62.7569 29.1414 63.1396 28.8008C63.8604 28.1744 64.5915 27.569 65.3466 26.9844C66.1658 26.348 66.9629 25.6906 67.7518 25.0172C68.358 24.5002 68.9742 23.9986 69.5983 23.5036C70.1599 23.056 70.7172 22.6034 71.2744 22.1504C71.3825 22.0625 71.4907 21.9745 71.6021 21.8839C72.7273 20.9688 72.7273 20.9688 73.8476 20.0478C74.13 19.8185 74.4169 19.5947 74.707 19.3751C75.8252 18.514 76.6135 17.637 77.0654 16.2813C77.2094 14.8622 76.9053 13.7868 76.1865 12.5703C75.0607 11.5038 73.9142 11.0713 72.3876 11.0933C71.0158 11.1843 70.1885 11.876 69.2529 12.8438ZM56.7529 28C56.474 28.3154 56.2019 28.6336 55.9326 28.9571C55.8578 29.0461 55.7831 29.1351 55.7061 29.2268C55.5559 29.4059 55.4065 29.5856 55.2578 29.7659C55.1088 29.9427 54.9555 30.1161 54.7982 30.2856C54.5486 30.5516 54.5486 30.5516 54.2529 30.9688C54.3258 31.7559 54.943 32.2079 55.4736 32.7364C55.6212 32.8906 55.6212 32.8906 55.7717 33.0479C55.8677 33.1443 55.9637 33.2407 56.0626 33.34C56.1936 33.4727 56.1936 33.4727 56.3273 33.6081C56.5879 33.8146 56.5879 33.8146 56.9126 33.7535C57.425 33.5405 57.8144 33.1663 58.2275 32.8047C58.315 32.73 58.4025 32.6553 58.4927 32.5783C59.0304 32.1152 59.5384 31.6328 60.0341 31.125C59.5924 30.6795 59.1502 30.2344 58.7076 29.7899C58.5569 29.6385 58.4064 29.4869 58.2561 29.3352C58.0404 29.1176 57.8242 28.9006 57.608 28.6836C57.4779 28.5527 57.3478 28.4218 57.2137 28.2869C56.9599 27.9822 56.9599 27.9822 56.7529 28ZM47.5341 33.7813C47.461 33.8542 47.3879 33.9271 47.3126 34.0022C45.8346 35.5448 45.4921 37.5266 45.0752 39.5434C44.8068 40.818 44.4526 41.9933 43.9562 43.196C43.7647 43.5963 43.7647 43.5963 43.7841 43.9375C47.3677 44.0694 51.0876 43.5143 53.833 41.0176C55.0464 39.7393 55.6295 38.063 55.6137 36.3175C55.39 35.2983 54.5562 34.6631 53.8134 33.9864C53.6514 33.831 53.4897 33.6753 53.3285 33.5191C52.3322 32.5669 51.7464 32.1515 50.3448 32.1645C49.2006 32.2976 48.2731 32.9191 47.5341 33.7813Z" fill="#E57D90"/>
<path d="M9.91997 15.0061C10.0499 15.0053 10.1798 15.0045 10.3136 15.0037C10.7427 15.0014 11.1718 15.0004 11.6009 14.9995C11.8994 14.9986 12.1979 14.9977 12.4964 14.9968C13.122 14.9952 13.7476 14.9943 14.3732 14.9937C15.1747 14.9929 15.9761 14.9891 16.7775 14.9847C17.394 14.9817 18.0104 14.9809 18.6269 14.9807C18.9224 14.9802 19.2179 14.979 19.5133 14.9769C19.9266 14.9742 20.3398 14.9745 20.7531 14.9756C20.875 14.9741 20.9968 14.9727 21.1224 14.9712C21.898 14.9772 22.4439 15.0973 23.0029 15.6562C23.0209 16.0075 23.0279 16.3594 23.0306 16.7111C23.0316 16.8214 23.0326 16.9317 23.0337 17.0453C23.0368 17.4117 23.0386 17.7782 23.0401 18.1447C23.0408 18.2696 23.0414 18.3945 23.0421 18.5232C23.0453 19.1845 23.0476 19.8457 23.049 20.507C23.0507 21.1906 23.0561 21.8741 23.0623 22.5577C23.0664 23.0827 23.0677 23.6078 23.0683 24.1328C23.069 24.3848 23.0709 24.6368 23.0738 24.8888C23.0776 25.2416 23.0774 25.5942 23.0763 25.947C23.0772 26.1477 23.0782 26.3485 23.0791 26.5554C23.0029 27.0625 23.0029 27.0625 22.7712 27.4395C22.2024 27.7981 21.6633 27.776 21.0116 27.7709C20.8739 27.7722 20.7361 27.7735 20.5941 27.7749C20.1389 27.7785 19.6838 27.7774 19.2285 27.776C18.9121 27.7768 18.5957 27.7778 18.2793 27.7789C17.6162 27.7806 16.9532 27.7798 16.2902 27.7776C15.44 27.7749 14.59 27.7786 13.7398 27.784C13.0864 27.7875 12.4332 27.7873 11.7798 27.786C11.4663 27.7858 11.1529 27.7869 10.8394 27.7892C10.4013 27.7919 9.9635 27.7897 9.52542 27.7861C9.33083 27.7888 9.33083 27.7888 9.13231 27.7916C8.54188 27.7819 8.22488 27.7426 7.76615 27.3582C7.4844 26.8093 7.45584 26.4423 7.45575 25.8259C7.45491 25.7204 7.45406 25.6148 7.4532 25.5061C7.45125 25.159 7.45382 24.812 7.45663 24.4648C7.45661 24.2226 7.45637 23.9804 7.45594 23.7381C7.45573 23.2311 7.45768 22.7242 7.46125 22.2172C7.46568 21.5683 7.46525 20.9196 7.46326 20.2707C7.46218 19.7707 7.4634 19.2707 7.46534 18.7707C7.46604 18.5315 7.46609 18.2923 7.46548 18.0531C7.46502 17.7183 7.46761 17.3838 7.47101 17.0491C7.47186 16.8589 7.4727 16.6686 7.47357 16.4727C7.54035 15.9171 7.65171 15.6213 8.0029 15.1875C8.62914 14.979 9.26693 15.007 9.91997 15.0061ZM9.8779 17.375C9.8779 20.0562 9.8779 22.7375 9.8779 25.5C13.4873 25.5 17.0966 25.5 20.8154 25.5C20.8154 22.8187 20.8154 20.1375 20.8154 17.375C17.206 17.375 13.5966 17.375 9.8779 17.375Z" fill="#E57D90"/>
<path d="M27.7147 15.0085C27.8446 15.008 27.9745 15.0075 28.1083 15.0069C28.5383 15.0054 28.9682 15.0051 29.3982 15.005C29.6969 15.0045 29.9956 15.0039 30.2944 15.0034C30.9209 15.0025 31.5474 15.0022 32.174 15.0023C32.9766 15.0023 33.7793 15.0001 34.5819 14.9975C35.1991 14.9957 35.8162 14.9954 36.4333 14.9955C36.7292 14.9953 37.0251 14.9946 37.3211 14.9934C37.7351 14.9919 38.1491 14.9923 38.5631 14.9933C38.6852 14.9924 38.8073 14.9915 38.9331 14.9906C39.5739 14.9943 40.094 15.0281 40.6591 15.3437C41.0396 15.9144 41.0129 16.1913 41.017 16.8717C41.0181 16.9787 41.0191 17.0857 41.0202 17.196C41.0232 17.5498 41.0238 17.9037 41.0241 18.2575C41.0251 18.5037 41.0262 18.7499 41.0273 18.9961C41.0292 19.5123 41.0297 20.0285 41.0296 20.5447C41.0295 21.2055 41.0338 21.8662 41.0392 22.527C41.0426 23.0356 41.0433 23.5441 41.0431 24.0527C41.0435 24.2963 41.0449 24.5399 41.0473 24.7834C41.0503 25.1246 41.0494 25.4655 41.0476 25.8066C41.048 26.0005 41.0484 26.1945 41.0489 26.3943C40.9533 27.0276 40.84 27.2758 40.3466 27.6875C39.8626 27.7653 39.4644 27.7929 38.9804 27.7861C38.8426 27.7872 38.7048 27.7883 38.5629 27.7895C38.1076 27.7921 37.6525 27.7891 37.1972 27.7857C36.8808 27.7859 36.5644 27.7862 36.248 27.7869C35.585 27.7873 34.922 27.785 34.2589 27.7807C33.4087 27.7754 32.5587 27.7764 31.7085 27.7793C31.0552 27.7809 30.4019 27.7795 29.7486 27.7772C29.4351 27.7764 29.1216 27.7765 28.8081 27.7774C28.3701 27.7783 27.9322 27.7751 27.4942 27.7708C27.3644 27.7718 27.2347 27.7729 27.1011 27.7739C26.5621 27.7649 26.1952 27.73 25.7349 27.4392C25.4174 26.9236 25.4246 26.5562 25.4245 25.9519C25.4237 25.8413 25.4228 25.7307 25.4219 25.6168C25.42 25.252 25.4226 24.8875 25.4254 24.5228C25.4254 24.2691 25.4251 24.0154 25.4247 23.7617C25.4245 23.2303 25.4264 22.6991 25.43 22.1678C25.4344 21.4865 25.434 20.8052 25.432 20.1239C25.4309 19.6002 25.4321 19.0765 25.4341 18.5528C25.4348 18.3016 25.4348 18.0503 25.4342 17.7991C25.4338 17.4482 25.4364 17.0974 25.4398 16.7466C25.4406 16.5469 25.4415 16.3472 25.4423 16.1414C25.5029 15.6562 25.5029 15.6562 25.7119 15.3635C26.3326 14.9429 26.9971 15.0081 27.7147 15.0085ZM27.6904 17.375C27.6904 20.0562 27.6904 22.7375 27.6904 25.5C31.3513 25.5 35.0123 25.5 38.7841 25.5C38.7841 22.8187 38.7841 20.1375 38.7841 17.375C35.1232 17.375 31.4623 17.375 27.6904 17.375Z" fill="#E57D90"/>
<path d="M27.3513 30.5906C27.4924 30.5893 27.6334 30.588 27.7787 30.5866C28.2457 30.583 28.7126 30.5828 29.1796 30.583C29.5036 30.5819 29.8276 30.5807 30.1516 30.5794C30.831 30.5773 31.5103 30.5771 32.1897 30.578C33.0614 30.5789 33.933 30.5741 34.8047 30.5678C35.4739 30.5638 36.143 30.5633 36.8121 30.5639C37.1336 30.5636 37.4551 30.5621 37.7765 30.5593C38.2255 30.5559 38.6742 30.5574 39.1232 30.5601C39.2566 30.558 39.3901 30.556 39.5276 30.5538C39.898 30.5591 39.898 30.5591 40.5029 30.6562C40.9031 31.1124 40.974 31.3194 40.9619 31.9258C40.7848 32.4689 40.6883 32.5731 40.1904 32.8437C39.7342 32.89 39.3114 32.9094 38.8553 32.9069C38.6536 32.9085 38.6536 32.9085 38.4478 32.9101C38.0034 32.913 37.5592 32.9124 37.1148 32.9115C36.8058 32.9122 36.4968 32.913 36.1878 32.914C35.5401 32.9154 34.8924 32.915 34.2447 32.9134C33.4149 32.9116 32.5852 32.9148 31.7554 32.9194C31.1172 32.9222 30.479 32.9222 29.8408 32.9213C29.5349 32.9213 29.2289 32.9222 28.923 32.9242C28.4951 32.9265 28.0674 32.9248 27.6394 32.9221C27.4501 32.9244 27.4501 32.9244 27.2569 32.9267C26.6744 32.9191 26.3172 32.8636 25.8137 32.5611C25.5029 32.2187 25.5029 32.2187 25.4247 31.6621C25.5933 30.503 26.3376 30.5872 27.3513 30.5906Z" fill="#E57D90"/>
<path d="M9.50674 30.6311C9.71599 30.6299 9.71599 30.6299 9.92947 30.6287C10.3922 30.6264 10.8549 30.6254 11.3177 30.6245C11.6384 30.6236 11.9591 30.6227 12.2799 30.6218C12.9528 30.6202 13.6257 30.6193 14.2986 30.6187C15.1621 30.6179 16.0255 30.6141 16.889 30.6097C17.5516 30.6067 18.2141 30.6059 18.8767 30.6057C19.1951 30.6052 19.5135 30.604 19.8319 30.6019C20.2767 30.5993 20.7215 30.5995 21.1663 30.6006C21.2985 30.5991 21.4308 30.5977 21.567 30.5962C22.4641 30.6026 22.4641 30.6026 22.8011 30.8606C23.0029 31.125 23.0029 31.125 23.081 31.6621C23.0029 32.2187 23.0029 32.2187 22.691 32.5611C22.0848 32.9262 21.57 32.9305 20.8831 32.9221C20.7502 32.923 20.6172 32.9238 20.4802 32.9247C20.0417 32.9266 19.6034 32.9241 19.165 32.9213C18.8597 32.9213 18.5544 32.9215 18.2491 32.922C17.6097 32.9222 16.9704 32.9202 16.331 32.9166C15.5118 32.9122 14.6928 32.9126 13.8736 32.9146C13.2434 32.9157 12.6131 32.9145 11.9828 32.9126C11.6808 32.9119 11.3788 32.9118 11.0768 32.9124C10.6545 32.9129 10.2324 32.9103 9.81012 32.9069C9.62332 32.9079 9.62332 32.9079 9.43274 32.909C8.72498 32.8995 8.24514 32.8297 7.69037 32.375C7.52961 31.8713 7.48501 31.5773 7.66108 31.0762C8.09494 30.4596 8.82723 30.632 9.50674 30.6311Z" fill="#E57D90"/>
<path d="M9.30963 35.0889C9.50726 35.087 9.70489 35.085 9.9085 35.083C10.1229 35.0849 10.3373 35.087 10.5517 35.0893C10.7729 35.0892 10.9941 35.0888 11.2153 35.0881C11.6782 35.0877 12.141 35.09 12.6039 35.0943C13.196 35.0996 13.788 35.0987 14.3802 35.0957C14.8367 35.0941 15.2933 35.0955 15.7498 35.0978C15.9681 35.0986 16.1864 35.0986 16.4047 35.0976C16.7102 35.0967 17.0156 35.1004 17.3211 35.1042C17.5814 35.1057 17.5814 35.1057 17.847 35.1071C18.4238 35.2062 18.6875 35.4003 19.0966 35.8126C19.1845 36.2813 19.1845 36.2813 19.0966 36.7501C18.7555 37.201 18.5717 37.3581 18.0081 37.4534C17.7375 37.4534 17.7375 37.4534 17.4614 37.4534C17.2565 37.4549 17.0516 37.4564 16.8405 37.4579C16.6174 37.4562 16.3943 37.4545 16.1712 37.4526C15.942 37.4526 15.7128 37.4528 15.4836 37.4533C15.0038 37.4535 14.5241 37.4515 14.0442 37.448C13.4291 37.4435 12.8141 37.4439 12.199 37.4459C11.7259 37.447 11.2529 37.4458 10.7799 37.4439C10.5531 37.4432 10.3262 37.4431 10.0994 37.4437C9.78262 37.4442 9.46584 37.4413 9.14907 37.4382C8.9688 37.4373 8.78852 37.4365 8.60278 37.4356C8.15912 37.3751 8.15912 37.3751 7.87264 37.1648C7.58533 36.7573 7.53412 36.4658 7.53412 35.9688C8.08263 35.2759 8.43264 35.0897 9.30963 35.0889Z" fill="#E57D90"/>
<path d="M27.2276 35.1624C27.4258 35.1609 27.624 35.1594 27.8281 35.1578C28.0455 35.1571 28.2628 35.1564 28.4802 35.1558C28.7024 35.1549 28.9247 35.154 29.1469 35.1531C29.6132 35.1515 30.0795 35.1506 30.5458 35.15C31.1431 35.1492 31.7402 35.1454 32.3375 35.141C32.7967 35.138 33.2559 35.1372 33.7152 35.137C33.9353 35.1365 34.1555 35.1353 34.3756 35.1332C34.6838 35.1305 34.992 35.1311 35.3001 35.1319C35.4755 35.1313 35.6508 35.1307 35.8314 35.1301C36.3367 35.1942 36.5479 35.3035 36.9091 35.6563C37.0556 36.0274 37.0556 36.0274 37.0654 36.4375C36.887 36.7943 36.7232 37.0923 36.4404 37.375C36.117 37.3931 35.7929 37.4 35.4691 37.4027C35.317 37.4042 35.317 37.4042 35.1619 37.4058C34.8251 37.4089 34.4883 37.4107 34.1515 37.4123C34.0368 37.4129 33.922 37.4136 33.8038 37.4142C33.1964 37.4175 32.589 37.4197 31.9816 37.4212C31.3533 37.4229 30.7251 37.4283 30.0969 37.4345C29.6146 37.4386 29.1323 37.4399 28.65 37.4404C28.4184 37.4412 28.1868 37.443 27.9552 37.4459C27.6312 37.4497 27.3074 37.4496 26.9833 37.4485C26.7066 37.4499 26.7066 37.4499 26.4244 37.4513C25.9716 37.375 25.9716 37.375 25.6777 37.0879C25.4414 36.6313 25.4382 36.3194 25.5029 35.8125C25.9886 35.1723 26.4585 35.1671 27.2276 35.1624Z" fill="#E57D90"/>
<path d="M35.2685 55.0605C35.8154 55.1875 35.8154 55.1875 36.1181 55.3535C36.3925 55.8539 36.381 56.3589 36.2841 56.9062C36.04 57.2969 36.04 57.2969 35.6591 57.5312C35.0365 57.6202 34.713 57.6362 34.1943 57.2676C33.9061 56.8575 33.7964 56.6267 33.7841 56.125C34.1236 55.3952 34.4211 55.0151 35.2685 55.0605Z" fill="#E57D90"/>
</svg>
